<?xml version="1.0" encoding="UTF-8"?>
<svg id="Layer_2" data-name="Layer 2" xmlns="http://www.w3.org/2000/svg" xmlns:xlink="http://www.w3.org/1999/xlink" viewBox="0 0 226.63 47">
  <defs>
    <style>
      .cls-1 {
        stroke: url(#linear-gradient);
      }

      .cls-1, .cls-2, .cls-3 {
        fill: none;
        stroke-miterlimit: 10;
        stroke-width: 3px;
      }

      .cls-4 {
        fill: #231f20;
        stroke-width: 0px;
      }

      .cls-2 {
        stroke: url(#linear-gradient-2);
      }

      .cls-3 {
        stroke: url(#linear-gradient-3);
      }
    </style>
    <linearGradient id="linear-gradient" x1="19.05" y1="23.5" x2="47.92" y2="23.5" gradientUnits="userSpaceOnUse">
      <stop offset="0" stop-color="#2e7cc0"/>
      <stop offset="1" stop-color="#31b562"/>
    </linearGradient>
    <linearGradient id="linear-gradient-2" x1="0" y1="12.5" x2="28.87" y2="12.5" xlink:href="#linear-gradient"/>
    <linearGradient id="linear-gradient-3" x1="0" y1="34.5" x2="28.87" y2="34.5" xlink:href="#linear-gradient"/>
  </defs>
  <g id="Logotipo">
    <g id="Color2-v2">
      <g id="Hexagonos">
        <g>
          <polygon id="Hex3" class="cls-1" points="39.84 12.5 27.14 12.5 20.78 23.5 27.14 34.5 39.84 34.5 46.19 23.5 39.84 12.5"/>
          <polygon id="Hex1" class="cls-2" points="20.78 1.5 8.08 1.5 1.73 12.5 8.08 23.5 20.78 23.5 27.14 12.5 20.78 1.5"/>
          <polygon id="Hex2" class="cls-3" points="20.78 23.5 8.08 23.5 1.73 34.5 8.08 45.5 20.78 45.5 27.14 34.5 20.78 23.5"/>
        </g>
      </g>
      <g>
        <path class="cls-4" d="M65.72,30.27c-1.14,0-2.17-.18-3.09-.56-.92-.37-1.63-.91-2.14-1.63-.51-.71-.77-1.5-.77-2.36h3.17c.06.34.2.67.43.99.23.31.56.56.99.73s.9.26,1.42.26.97-.1,1.37-.3c.4-.2.73-.47.99-.81.26-.34.39-.71.39-1.11,0-.51-.13-.96-.39-1.33-.26-.37-.62-.69-1.07-.94-.46-.26-1-.39-1.63-.39h-1.46v-2.31h1.46c.57,0,1.06-.11,1.46-.34.4-.23.7-.53.9-.9.2-.37.3-.79.3-1.24,0-.4-.1-.76-.3-1.07-.2-.31-.47-.57-.81-.77-.34-.2-.74-.3-1.2-.3s-.89.1-1.29.3c-.4.2-.72.46-.94.77-.23.31-.37.67-.43,1.07h-3c0-.91.26-1.71.77-2.4.51-.69,1.2-1.23,2.06-1.63.86-.4,1.8-.57,2.83-.51,1.14-.06,2.11.12,2.92.51.8.4,1.41.94,1.84,1.63.43.69.64,1.46.64,2.31,0,.57-.12,1.11-.34,1.63-.23.51-.57.94-1.03,1.29-.46.34-.97.57-1.54.69.69.12,1.3.37,1.84.77.54.4.97.89,1.29,1.46.31.57.44,1.2.39,1.89.06.86-.19,1.64-.73,2.36-.54.72-1.26,1.27-2.14,1.67-.89.4-1.93.6-3.13.6Z"/>
        <path class="cls-4" d="M74.89,30.09V13.63h5.57c1.66,0,3.06.33,4.2.99,1.14.66,2.01,1.6,2.62,2.83.6,1.23.9,2.67.9,4.33s-.3,3.12-.9,4.37c-.6,1.26-1.47,2.23-2.62,2.92-1.14.69-2.54,1.03-4.2,1.03h-5.57ZM78.06,27.44h2.23c1.08,0,1.97-.21,2.66-.64.69-.43,1.21-1.07,1.59-1.93.37-.86.56-1.89.56-3.09s-.19-2.2-.56-3c-.37-.8-.9-1.41-1.59-1.84-.69-.43-1.54-.64-2.57-.64h-2.31v11.15Z"/>
        <path class="cls-4" d="M97.25,30.09V13.63h3.17v16.46h-3.17Z"/>
        <path class="cls-4" d="M104.06,30.09V13.63h2.74l7.37,10.72v-10.72h3.17v16.46h-2.83l-7.29-10.97v10.97h-3.17Z"/>
        <path class="cls-4" d="M128.11,30.27c-1.43,0-2.7-.34-3.81-1.03-1.12-.69-1.99-1.66-2.62-2.92-.63-1.26-.94-2.71-.94-4.37,0-1.83.33-3.37.99-4.63.66-1.26,1.56-2.21,2.7-2.87,1.14-.66,2.4-.99,3.77-.99.91,0,1.77.13,2.57.39.8.26,1.51.64,2.14,1.16.63.51,1.13,1.11,1.5,1.8.37.69.59,1.49.64,2.4h-3.17c-.06-.46-.2-.89-.43-1.29-.23-.4-.5-.71-.81-.94-.31-.23-.67-.41-1.07-.56-.4-.14-.86-.21-1.37-.21-.8,0-1.53.23-2.19.69-.66.46-1.17,1.09-1.54,1.89-.37.8-.56,1.8-.56,3,.06,1.2.26,2.22.6,3.04.34.83.83,1.47,1.46,1.93.63.46,1.34.72,2.14.77.8-.06,1.5-.24,2.1-.56.6-.31,1.06-.74,1.37-1.29.31-.54.47-1.16.47-1.84h-3.6v-2.49h6.69v8.75h-2.14l-.17-1.8c-.74.74-1.5,1.26-2.27,1.54-.77.29-1.59.43-2.44.43Z"/>
        <path class="cls-4" d="M138.52,30.09V13.63h10.54v2.57h-7.37v4.12h6.94v2.74h-6.94v4.46h7.46v2.57h-10.63Z"/>
        <path class="cls-4" d="M152.71,30.09V13.63h2.74l7.37,10.72v-10.72h3.17v16.46h-2.83l-7.29-10.97v10.97h-3.17Z"/>
        <path class="cls-4" d="M169.64,30.09V13.63h3.17v16.46h-3.17Z"/>
        <path class="cls-4" d="M176.45,30.09V13.63h10.54v2.57h-7.37v4.12h6.94v2.74h-6.94v4.46h7.46v2.57h-10.63Z"/>
        <path class="cls-4" d="M190.63,30.09V13.63h6.17c1.26,0,2.3.21,3.13.64.83.43,1.46,1.03,1.89,1.8s.64,1.7.64,2.79-.23,2.03-.69,2.83c-.46.8-1.17,1.4-2.14,1.8l3.43,6.6h-3.52l-3.09-6.09h-2.66v6.09h-3.17ZM193.8,21.44h2.49c.69,0,1.24-.11,1.67-.34.43-.23.74-.53.94-.9.2-.37.3-.81.3-1.33,0-.57-.1-1.06-.3-1.46-.2-.4-.51-.7-.94-.9-.43-.2-1.02-.3-1.76-.3h-2.4v5.23Z"/>
        <path class="cls-4" d="M205.67,30.09V13.63h3.17v16.46h-3.17Z"/>
        <path class="cls-4" d="M211.54,30.09l5.57-16.46h3.94l5.57,16.46h-3.34l-1.2-4.03h-5.83l-1.37,4.03h-3.34ZM217.03,23.58h4.2l-2.14-6.43-2.06,6.43Z"/>
      </g>
      <g>
        <path class="cls-4" d="M60.06,39.38v-3.66h.65v1.53h1.66v-1.53h.63v3.66h-.63v-1.6h-1.66v1.6h-.65Z"/>
        <path class="cls-4" d="M64.56,39.38l1.26-3.66h.76l1.24,3.66h-.65l-.3-.95h-1.33l-.3.95h-.67ZM65.71,37.93h.99l-.5-1.49-.5,1.49Z"/>
        <path class="cls-4" d="M70.95,39.42c-.3,0-.58-.08-.83-.23-.25-.15-.44-.37-.57-.64-.13-.27-.2-.61-.2-1s.07-.73.21-1c.14-.27.33-.48.57-.63.24-.15.52-.22.82-.22.19,0,.37.03.54.09.17.06.32.14.45.24.13.1.24.24.32.4.09.17.15.34.17.53h-.63c-.01-.11-.04-.22-.1-.3s-.11-.16-.19-.22c-.08-.06-.16-.1-.26-.13-.09-.03-.2-.05-.31-.05-.19,0-.36.05-.51.15-.15.1-.27.25-.35.44-.08.19-.12.43-.12.71s.04.52.12.71c.08.2.2.35.35.45.15.1.32.15.51.15.11,0,.22-.02.31-.05.1-.03.18-.08.25-.13.07-.06.13-.13.19-.21.06-.08.09-.19.11-.31h.63c-.03.18-.08.35-.16.51-.08.16-.19.29-.31.4s-.27.19-.44.26-.36.1-.57.1Z"/>
        <path class="cls-4" d="M74.12,39.38v-3.66h2.29v.51h-1.64v1.01h1.56v.53h-1.56v1.09h1.68v.51h-2.33Z"/>
        <path class="cls-4" d="M78.18,39.38v-3.66h.78l1.07,2.73,1.11-2.73h.76v3.66h-.59v-2.59l-1.03,2.57h-.46l-1.03-2.57v2.59h-.61Z"/>
        <path class="cls-4" d="M85.24,39.42c-.3,0-.58-.08-.82-.23-.24-.15-.43-.37-.57-.65-.14-.28-.21-.61-.21-.99s.07-.71.21-.99c.14-.28.33-.5.57-.65.24-.15.52-.22.82-.21.24,0,.46.04.65.12s.36.21.51.37c.15.17.27.36.34.58.08.22.11.48.11.77,0,.38-.07.71-.21.99s-.33.5-.57.65c-.24.15-.52.23-.84.23ZM85.24,38.87c.2,0,.38-.05.52-.15.15-.1.26-.25.35-.46.09-.2.13-.44.13-.71s-.04-.52-.13-.71c-.09-.2-.21-.35-.35-.45-.15-.1-.32-.15-.52-.13-.19-.01-.36.04-.51.14-.15.11-.27.26-.35.45-.08.19-.12.43-.12.71s.04.5.12.71c.08.2.2.36.35.46.15.1.32.15.51.15Z"/>
        <path class="cls-4" d="M89.82,39.44c-.28,0-.52-.04-.71-.12s-.35-.21-.47-.38c-.12-.17-.18-.37-.19-.58h.61c.01.11.05.21.12.3.07.08.16.14.27.18.11.04.23.06.35.06.15,0,.28-.02.39-.06.11-.04.19-.1.26-.17.06-.08.09-.16.09-.25,0-.11-.03-.21-.09-.28-.06-.07-.13-.13-.23-.18s-.21-.1-.33-.13l-.44-.13c-.18-.06-.34-.14-.48-.22-.14-.08-.25-.18-.32-.31-.08-.12-.11-.26-.11-.43,0-.2.06-.38.17-.54.11-.16.27-.28.47-.37.2-.09.42-.13.66-.13s.47.04.65.13c.18.09.32.21.43.36.11.15.16.33.16.53h-.61c0-.1-.03-.19-.08-.28-.05-.08-.12-.14-.22-.18-.09-.04-.21-.06-.35-.06-.13,0-.24.02-.34.07-.1.04-.18.1-.23.17-.05.07-.08.16-.08.26s.03.18.09.25c.06.06.13.11.23.15.1.04.19.08.28.11l.36.11c.13.04.25.09.37.14s.23.13.33.21.18.18.25.31.1.26.1.43c0,.2-.05.38-.16.54-.11.16-.26.28-.47.36s-.45.12-.72.12Z"/>
        <path class="cls-4" d="M94.86,36.23v-.51h2.82v.51h-1.09v3.15h-.65v-3.15h-1.09Z"/>
        <path class="cls-4" d="M100.69,39.44c-.28,0-.53-.05-.74-.16-.22-.11-.38-.26-.5-.45-.12-.19-.18-.41-.18-.65v-2.46h.65v2.38c0,.15.03.29.1.4.06.11.15.2.27.27.12.06.25.1.42.1.18,0,.33-.03.45-.1.12-.06.21-.15.28-.27.06-.11.1-.25.1-.4v-2.38h.63v2.46c0,.24-.06.46-.17.65-.11.19-.28.34-.5.45-.22.11-.48.16-.78.16Z"/>
        <path class="cls-4" d="M105.19,39.44c-.28,0-.52-.04-.71-.12s-.35-.21-.47-.38c-.12-.17-.18-.37-.19-.58h.61c.01.11.05.21.12.3.07.08.16.14.27.18.11.04.23.06.35.06.15,0,.28-.02.39-.06.11-.04.19-.1.26-.17.06-.08.09-.16.09-.25,0-.11-.03-.21-.09-.28-.06-.07-.13-.13-.23-.18s-.21-.1-.33-.13l-.44-.13c-.18-.06-.34-.14-.48-.22-.14-.08-.25-.18-.32-.31-.08-.12-.11-.26-.11-.43,0-.2.06-.38.17-.54.11-.16.27-.28.47-.37.2-.09.42-.13.66-.13s.47.04.65.13c.18.09.32.21.43.36.11.15.16.33.16.53h-.61c0-.1-.03-.19-.08-.28-.05-.08-.12-.14-.22-.18-.09-.04-.21-.06-.35-.06-.13,0-.24.02-.34.07-.1.04-.18.1-.23.17-.05.07-.08.16-.08.26s.03.18.09.25c.06.06.13.11.23.15.1.04.19.08.28.11l.36.11c.13.04.25.09.37.14s.23.13.33.21.18.18.25.31.1.26.1.43c0,.2-.05.38-.16.54-.11.16-.26.28-.47.36s-.45.12-.72.12Z"/>
        <path class="cls-4" d="M110.5,39.38v-3.66h1.33c.28,0,.51.05.7.15.18.1.32.24.42.41.09.17.14.37.12.6.01.23-.03.43-.12.61-.1.18-.24.31-.43.41-.19.1-.43.14-.71.14h-.67v1.33h-.65ZM111.15,37.55h.61c.17,0,.3-.03.4-.09s.17-.14.22-.24c.04-.1.07-.22.07-.34s-.02-.24-.07-.33c-.04-.1-.12-.17-.23-.23-.11-.06-.24-.09-.41-.09h-.59v1.32Z"/>
        <path class="cls-4" d="M114.71,39.38v-3.66h1.33c.28,0,.51.05.69.14s.31.23.41.4.14.37.14.6c0,.24-.05.45-.15.63-.1.18-.26.32-.48.42l.76,1.47h-.69l-.71-1.37h-.67v1.37h-.65ZM115.36,37.47h.61c.17,0,.3-.03.39-.08.1-.05.17-.12.22-.21s.08-.2.08-.32c0-.14-.03-.25-.08-.34-.05-.09-.13-.16-.23-.21-.1-.05-.24-.08-.4-.08h-.59v1.24Z"/>
        <path class="cls-4" d="M120.51,39.42c-.3,0-.58-.08-.82-.23-.24-.15-.43-.37-.57-.65-.14-.28-.21-.61-.21-.99s.07-.71.21-.99c.14-.28.33-.5.57-.65.24-.15.52-.22.82-.21.24,0,.46.04.65.12s.36.21.51.37c.15.17.27.36.34.58.08.22.11.48.11.77,0,.38-.07.71-.21.99s-.33.5-.57.65c-.24.15-.52.23-.84.23ZM120.51,38.87c.2,0,.38-.05.52-.15.15-.1.26-.25.35-.46.09-.2.13-.44.13-.71s-.04-.52-.13-.71c-.09-.2-.21-.35-.35-.45-.15-.1-.32-.15-.52-.13-.19-.01-.36.04-.51.14-.15.11-.27.26-.35.45-.08.19-.12.43-.12.71s.04.5.12.71c.08.2.2.36.35.46.15.1.32.15.51.15Z"/>
        <path class="cls-4" d="M124.88,39.38v-1.35l-1.3-2.23h.71l.92,1.62.9-1.62h.71l-1.32,2.23v1.35h-.61Z"/>
        <path class="cls-4" d="M128.33,39.38v-3.66h2.29v.51h-1.64v1.01h1.56v.53h-1.56v1.09h1.68v.51h-2.33Z"/>
        <path class="cls-4" d="M133.94,39.42c-.3,0-.58-.08-.83-.23-.25-.15-.44-.37-.57-.64-.13-.27-.2-.61-.2-1s.07-.73.21-1c.14-.27.33-.48.57-.63.24-.15.52-.22.82-.22.19,0,.37.03.54.09.17.06.32.14.45.24.13.1.24.24.32.4.09.17.15.34.17.53h-.63c-.01-.11-.04-.22-.1-.3s-.11-.16-.19-.22c-.08-.06-.16-.1-.26-.13-.09-.03-.2-.05-.31-.05-.19,0-.36.05-.51.15-.15.1-.27.25-.35.44-.08.19-.12.43-.12.71s.04.52.12.71c.08.2.2.35.35.45.15.1.32.15.51.15.11,0,.22-.02.31-.05.1-.03.18-.08.25-.13.07-.06.13-.13.19-.21.06-.08.09-.19.11-.31h.63c-.03.18-.08.35-.16.51-.08.16-.19.29-.31.4s-.27.19-.44.26-.36.1-.57.1Z"/>
        <path class="cls-4" d="M136.84,36.23v-.51h2.82v.51h-1.09v3.15h-.65v-3.15h-1.09Z"/>
        <path class="cls-4" d="M142.79,39.42c-.3,0-.58-.08-.82-.23-.24-.15-.43-.37-.57-.65-.14-.28-.21-.61-.21-.99s.07-.71.21-.99c.14-.28.33-.5.57-.65.24-.15.52-.22.82-.21.24,0,.46.04.65.12s.36.21.51.37c.15.17.27.36.34.58.08.22.11.48.11.77,0,.38-.07.71-.21.99s-.33.5-.57.65c-.24.15-.52.23-.84.23ZM142.79,38.87c.2,0,.38-.05.52-.15.15-.1.26-.25.35-.46.09-.2.13-.44.13-.71s-.04-.52-.13-.71c-.09-.2-.21-.35-.35-.45-.15-.1-.32-.15-.52-.13-.19-.01-.36.04-.51.14-.15.11-.27.26-.35.45-.08.19-.12.43-.12.71s.04.5.12.71c.08.2.2.36.35.46.15.1.32.15.51.15Z"/>
        <path class="cls-4" d="M147.37,39.44c-.28,0-.52-.04-.71-.12s-.35-.21-.47-.38c-.12-.17-.18-.37-.19-.58h.61c.01.11.05.21.12.3.07.08.16.14.27.18.11.04.23.06.35.06.15,0,.28-.02.39-.06.11-.04.19-.1.26-.17.06-.08.09-.16.09-.25,0-.11-.03-.21-.09-.28-.06-.07-.13-.13-.23-.18s-.21-.1-.33-.13l-.44-.13c-.18-.06-.34-.14-.48-.22-.14-.08-.25-.18-.32-.31-.08-.12-.11-.26-.11-.43,0-.2.06-.38.17-.54.11-.16.27-.28.47-.37.2-.09.42-.13.66-.13s.47.04.65.13c.18.09.32.21.43.36.11.15.16.33.16.53h-.61c0-.1-.03-.19-.08-.28-.05-.08-.12-.14-.22-.18-.09-.04-.21-.06-.35-.06-.13,0-.24.02-.34.07-.1.04-.18.1-.23.17-.05.07-.08.16-.08.26s.03.18.09.25c.06.06.13.11.23.15.1.04.19.08.28.11l.36.11c.13.04.25.09.37.14s.23.13.33.21.18.18.25.31.1.26.1.43c0,.2-.05.38-.16.54-.11.16-.26.28-.47.36s-.45.12-.72.12Z"/>
        <path class="cls-4" d="M152.67,39.38v-3.66h1.33c.28,0,.51.05.69.14s.31.23.41.4.14.37.14.6c0,.24-.05.45-.15.63-.1.18-.26.32-.48.42l.76,1.47h-.69l-.71-1.37h-.67v1.37h-.65ZM153.32,37.47h.61c.17,0,.3-.03.39-.08.1-.05.17-.12.22-.21s.08-.2.08-.32c0-.14-.03-.25-.08-.34-.05-.09-.13-.16-.23-.21-.1-.05-.24-.08-.4-.08h-.59v1.24Z"/>
        <path class="cls-4" d="M156.93,39.38v-3.66h2.29v.51h-1.64v1.01h1.56v.53h-1.56v1.09h1.68v.51h-2.33Z"/>
        <path class="cls-4" d="M160.76,39.38l1.26-3.66h.76l1.24,3.66h-.65l-.3-.95h-1.33l-.3.95h-.67ZM161.91,37.93h.99l-.5-1.49-.5,1.49Z"/>
        <path class="cls-4" d="M165.61,39.38v-3.58h.65v3.07h1.56v.51h-2.21Z"/>
        <path class="cls-4" d="M169.46,39.38v-3.66h.65v3.66h-.65Z"/>
        <path class="cls-4" d="M171.88,39.38v-3.66h1.22c.36,0,.66.08.92.23.25.15.45.36.58.63.13.27.2.58.2.95s-.07.69-.2.97-.33.5-.58.65c-.25.15-.57.23-.93.23h-1.2ZM172.53,38.85h.52c.27,0,.48-.05.65-.15.17-.1.29-.25.37-.45.08-.2.12-.44.12-.71s-.04-.5-.12-.69c-.08-.19-.2-.34-.36-.44-.16-.1-.37-.15-.62-.15h-.55v2.59Z"/>
        <path class="cls-4" d="M176.27,39.38l1.26-3.66h.76l1.24,3.66h-.65l-.3-.95h-1.33l-.3.95h-.67ZM177.42,37.93h.99l-.5-1.49-.5,1.49Z"/>
        <path class="cls-4" d="M181.11,39.38v-3.66h1.22c.36,0,.66.08.92.23.25.15.45.36.58.63.13.27.2.58.2.95s-.07.69-.2.97-.33.5-.58.65c-.25.15-.57.23-.93.23h-1.2ZM181.76,38.85h.52c.27,0,.48-.05.65-.15.17-.1.29-.25.37-.45.08-.2.12-.44.12-.71s-.04-.5-.12-.69c-.08-.19-.2-.34-.36-.44-.16-.1-.37-.15-.62-.15h-.55v2.59Z"/>
      </g>
    </g>
  </g>
</svg>