<?xml version="1.0" encoding="UTF-8"?>
<svg id="Layer_2" data-name="Layer 2" xmlns="http://www.w3.org/2000/svg" viewBox="0 0 68.01 72">
  <defs>
    <style>
      .cls-1, .cls-2 {
        stroke-width: 0px;
      }

      .cls-2 {
        fill: none;
      }
    </style>
  </defs>
  <g id="Layer_4" data-name="Layer 4">
    <g>
      <path class="cls-2" d="M27.05,31.33c1.64,0,3.28,0,4.92,0,.05,0,.09,0,.14,0,2.01-.05,3.57-1.22,3.79-3.07.11-.93-.12-1.9-.25-2.84-.21-1.53-.77-2.93-2.03-3.88-.75-.56-1.68-.9-2.51-1.35-.19-.1-.48-.27-.48-.4,0-.86-.23-1.74.46-2.53.41-.47.71-1.15.78-1.77.15-1.34.16-2.71.16-4.06,0-2.61-2.12-4.8-4.71-4.94-2.66-.14-4.99,1.78-5.26,4.41-.1,1.02-.07,2.06-.08,3.09-.02,1.4.42,2.62,1.24,3.79.35.5.25,1.38.21,2.08-.01.2-.55.41-.88.52-2.13.73-3.44,2.19-3.95,4.37-.15.61-.22,1.24-.34,1.86-.52,2.74,1.08,4.7,3.89,4.72,1.64.01,3.28,0,4.92,0ZM26.91,41.52c-5.32,0-10.64,0-15.96,0-.3,0-.61.02-.9.11-.48.15-.77.55-.65,1.02.1.35.4.69.7.93.19.15.54.11.82.11,10.62,0,21.23,0,31.85,0,.28,0,.63.04.82-.11.3-.23.61-.58.7-.93.12-.47-.17-.87-.66-1.02-.28-.09-.6-.1-.9-.1-5.27,0-10.55,0-15.82,0ZM26.82,49.36c5.3,0,10.59,0,15.89,0,.21,0,.42.01.63,0,.59-.06,1-.51.98-1.08-.01-.58-.41-.98-1.03-1.02-.19-.01-.37,0-.56,0-10.59,0-21.18,0-31.77,0-.21,0-.42-.01-.63,0-.59.06-.97.5-.94,1.09.03.66.48,1.01,1.34,1.01,5.37,0,10.73,0,16.1,0ZM26.88,52.9c-5.3,0-10.59,0-15.89,0-.28,0-.57-.01-.83.06-.54.15-.81.53-.77,1.11.04.54.35.86.88.94.23.04.47.04.7.04,10.59,0,21.18,0,31.77,0,.23,0,.47,0,.7-.04.53-.08.83-.42.87-.95.04-.53-.2-.92-.72-1.07-.26-.08-.55-.09-.83-.09-5.3,0-10.59,0-15.89,0ZM26.91,58.62c-5.3,0-10.59,0-15.89,0-.23,0-.47,0-.7.02-.57.06-.89.39-.94.95-.05.61.28.98.84,1.12.22.06.47.03.7.03,10.61,0,21.23,0,31.84,0,.23,0,.48.03.7-.03.56-.15.89-.53.83-1.13-.05-.56-.38-.89-.95-.95-.23-.02-.47-.01-.7-.01-5.25,0-10.5,0-15.75,0ZM26.82,66.4c5.27,0,10.54,0,15.82,0,.23,0,.47,0,.7-.01.61-.05.94-.4.97-.99.03-.61-.32-.96-.88-1.09-.22-.05-.47-.03-.7-.03-10.59,0-21.18,0-31.77,0-.21,0-.42-.01-.63.01-.64.09-1.04.63-.92,1.26.14.73.68.86,1.32.86,5.37,0,10.73,0,16.1,0ZM26.84,35.86c-4.41,0-8.81,0-13.22,0-1.05,0-2.11-.01-3.16,0-.66.01-1.08.43-1.09,1.03,0,.61.41,1.03,1.06,1.06.09,0,.19,0,.28,0,10.75,0,21.51,0,32.26,0,.14,0,.28.01.42,0,.56-.09.88-.43.91-.99.02-.6-.29-.97-.88-1.09-.2-.04-.42-.02-.63-.02-5.32,0-10.64,0-15.96,0ZM6.56,41.53c-.57-.02-1.07.46-1.08,1.05-.01.59.45,1.08,1.03,1.1.58.02,1.06-.45,1.08-1.05.01-.6-.44-1.08-1.02-1.1ZM6.55,52.9c-.58-.02-1.08.47-1.08,1.06,0,.57.42,1.03.99,1.06.61.03,1.09-.4,1.11-1.01.02-.6-.44-1.1-1.02-1.12ZM7.58,36.9c0-.61-.48-1.05-1.08-1.04-.57.02-1.01.46-1.02,1.03-.01.6.45,1.07,1.05,1.07.61,0,1.06-.46,1.05-1.07ZM6.56,49.35c.59-.02,1.04-.5,1.02-1.11-.02-.6-.5-1.03-1.12-1-.57.03-1,.49-.99,1.06,0,.59.5,1.06,1.09,1.04ZM7.58,59.69c0-.61-.44-1.07-1.05-1.07-.58,0-1.03.43-1.05,1-.02.59.44,1.1,1.02,1.12.58.02,1.07-.46,1.08-1.05ZM6.52,66.4c.61,0,1.06-.45,1.06-1.06,0-.57-.44-1.04-1-1.06-.58-.03-1.09.45-1.1,1.04-.02.6.44,1.08,1.04,1.08Z"/>
      <path class="cls-1" d="M49.9,0c.39.14.8.26,1.17.44,1.68.81,2.71,2.13,2.92,4.01.07.6.2,1,.84,1.26.59.23,1.14.66,1.62,1.09,1.08.97,2.34,1.41,3.76,1.51.4.03.79.09,1.18.17,2.05.45,3.11,1.66,3.4,3.85.06.44.12.88.17,1.32.11.98.45,1.84,1.09,2.62.54.67,1.05,1.38,1.47,2.13.66,1.16.64,2.38,0,3.56-.25.47-.52.96-.88,1.34-1.17,1.26-1.65,2.76-1.85,4.44-.33,2.87-1.56,4.04-4.43,4.3-1.54.14-2.86.66-4.07,1.65-2.47,2.02-4.01,1.99-6.54.07-.14-.11-.29-.21-.51-.37v13.71c.86-.66,1.66-1.29,2.46-1.91,1-.77,1.57-.78,2.57,0,.8.61,1.59,1.24,2.52,1.96,0-.36,0-.6,0-.84,0-3.12,0-6.23,0-9.35,0-.19,0-.38,0-.56.04-.63.5-1.08,1.08-1.06.56.02,1.01.44,1.01,1.05.01,3.96.01,7.92,0,11.88,0,.65-.35,1.11-.93,1.37-.58.26-1.15.21-1.66-.17-.71-.53-1.4-1.08-2.23-1.72,0,.42,0,.69,0,.95,0,5.95,0,11.91,0,17.86,0,2.57-1.3,4.49-3.52,5.18-.53.16-1.1.24-1.65.24-14.58.01-29.16.01-43.73,0-2.85,0-5.02-2.1-5.15-4.95,0-.21,0-.42,0-.63,0-17.34,0-34.69,0-52.03,0-.28-.01-.57.05-.84.13-.54.5-.87,1.06-.85.55.02.92.34,1.01.9.05.3.05.61.05.91,0,17.27,0,34.55,0,51.82,0,.49,0,1,.11,1.46.3,1.2,1.4,2.02,2.69,2.11.19.01.37,0,.56,0,14.34,0,28.69,0,43.03,0,1.12,0,2.12-.26,2.76-1.22.29-.45.54-1.03.54-1.55.04-6.35.02-12.7.02-19.05,0-.05-.02-.09-.06-.24-.65.5-1.28.96-1.88,1.46-.59.49-1.22.7-1.94.37-.77-.35-.94-1.01-.94-1.8.02-4.9,0-9.8,0-14.7v-.88c-.78-.12-1.52-.23-2.25-.35-2.18-.38-3.32-1.57-3.63-3.77-.06-.44-.12-.88-.17-1.32-.11-1.08-.5-2.02-1.2-2.86-.51-.61-.96-1.27-1.35-1.96-.68-1.19-.66-2.42-.02-3.62.22-.41.45-.83.76-1.17,1.2-1.31,1.76-2.84,1.97-4.61.33-2.84,1.44-3.95,4.24-4.24,1.73-.18,3.21-.71,4.5-1.87.44-.4,1.04-.62,1.53-.98.2-.15.42-.44.42-.66,0-1.41-1.2-2.6-2.7-2.72-.21-.02-.42-.01-.63-.01-14.34,0-28.69,0-43.03,0-.39,0-.8.03-1.18.13-1.22.3-2.08,1.31-2.13,2.57-.05,1.33-.01,2.67-.03,4.01-.01.89-.39,1.34-1.09,1.34-.69,0-1.06-.48-1.07-1.36,0-1.24-.02-2.48,0-3.73C.07,2.65,1.56.76,3.88.14,3.99.11,4.09.05,4.2,0c15.23,0,30.47,0,45.7,0ZM65.94,20.22c-.18-.44-.3-.85-.51-1.19-.31-.5-.67-.96-1.04-1.41-.8-.99-1.32-2.09-1.49-3.35-.07-.51-.12-1.02-.2-1.53-.22-1.56-.59-1.98-2.14-2.2-1.87-.26-3.66-.58-5.19-1.87-2.2-1.84-2.52-1.79-4.75-.02-.95.75-1.95,1.38-3.16,1.58-.62.1-1.25.16-1.87.27-1.79.32-2.13.63-2.29,2.44-.19,2.05-.82,3.87-2.24,5.4-.19.2-.33.45-.49.68-.54.78-.55,1.57,0,2.35.38.54.76,1.07,1.18,1.57.87,1.07,1.29,2.31,1.43,3.67.06.53.18,1.06.25,1.59.13.95.71,1.54,1.61,1.59,2.6.15,4.84,1.09,6.79,2.81.73.65,1.59.6,2.39.02.25-.18.51-.34.74-.54,1.48-1.35,3.22-1.99,5.21-2.15,1.81-.14,2.35-.52,2.48-2,.21-2.48,1.09-4.61,2.73-6.46.29-.33.4-.82.61-1.26Z"/>
      <path class="cls-1" d="M27.05,31.33c-1.64,0-3.28,0-4.92,0-2.81-.02-4.41-1.98-3.89-4.72.12-.62.2-1.25.34-1.86.52-2.17,1.83-3.64,3.95-4.37.33-.11.86-.33.88-.52.05-.7.15-1.57-.21-2.08-.82-1.17-1.26-2.38-1.24-3.79.02-1.03-.02-2.07.08-3.09.27-2.63,2.61-4.56,5.26-4.41,2.59.14,4.7,2.33,4.71,4.94,0,1.35,0,2.72-.16,4.06-.07.62-.37,1.3-.78,1.77-.7.79-.45,1.67-.46,2.53,0,.13.29.3.48.4.84.45,1.76.78,2.51,1.35,1.26.94,1.82,2.35,2.03,3.88.13.95.36,1.92.25,2.84-.22,1.85-1.78,3.02-3.79,3.07-.05,0-.09,0-.14,0-1.64,0-3.28,0-4.92,0ZM27.04,29.14h0c1.76,0,3.51.01,5.27,0,1.04-.01,1.68-.82,1.51-1.83-.1-.6-.24-1.19-.33-1.79-.23-1.63-1.16-2.67-2.71-3.15-.24-.07-.6-.03-.8.1-1.95,1.32-3.98,1.33-5.89,0-.15-.11-.39-.22-.54-.18-1.34.38-2.37,1.13-2.76,2.53-.21.74-.32,1.51-.47,2.26-.25,1.28.36,2.04,1.66,2.05,1.69,0,3.37,0,5.06,0ZM29.8,10.81c-.49-1.5-1.75-2.36-3.1-2.17-1.55.22-2.53,1.34-2.55,2.93-.01,1.01-.03,2.01,0,3.02.04,1.22.69,2.08,1.8,2.53,1.12.45,2.16.23,3.04-.61.98-.94,1.01-2.14.9-3.4-.53.12-1.02.26-1.53.33-.94.14-1.87.08-2.71-.43-.5-.3-.7-.93-.43-1.4.28-.49.73-.78,1.29-.51,1.15.54,2.18.12,3.28-.29ZM25.47,19.38c.12.52.06,1.33.42,1.62.65.52,1.64.52,2.28-.01.33-.28.24-1.07.33-1.6h-3.03Z"/>
      <path class="cls-1" d="M26.91,41.52c5.27,0,10.55,0,15.82,0,.3,0,.61.02.9.1.49.15.78.55.66,1.02-.09.35-.4.7-.7.93-.19.15-.54.11-.82.11-10.62,0-21.23,0-31.85,0-.28,0-.63.04-.82-.11-.3-.23-.6-.57-.7-.93-.13-.47.16-.87.65-1.02.28-.09.6-.11.9-.11,5.32,0,10.64,0,15.96,0Z"/>
      <path class="cls-1" d="M26.82,49.36c-5.37,0-10.73,0-16.1,0-.86,0-1.3-.34-1.34-1.01-.03-.59.35-1.04.94-1.09.21-.02.42,0,.63,0,10.59,0,21.18,0,31.77,0,.19,0,.38,0,.56,0,.62.04,1.02.44,1.03,1.02.01.57-.39,1.02-.98,1.08-.21.02-.42,0-.63,0-5.3,0-10.59,0-15.89,0Z"/>
      <path class="cls-1" d="M26.88,52.9c5.3,0,10.59,0,15.89,0,.28,0,.57,0,.83.09.51.16.75.54.72,1.07-.04.53-.34.86-.87.95-.23.04-.47.04-.7.04-10.59,0-21.18,0-31.77,0-.23,0-.47,0-.7-.04-.53-.08-.83-.4-.88-.94-.05-.57.23-.95.77-1.11.26-.08.56-.06.83-.06,5.3,0,10.59,0,15.89,0Z"/>
      <path class="cls-1" d="M26.91,58.62c5.25,0,10.5,0,15.75,0,.23,0,.47,0,.7.01.57.05.9.38.95.95.05.6-.27.98-.83,1.13-.22.06-.47.03-.7.03-10.61,0-21.23,0-31.84,0-.23,0-.48.03-.7-.03-.56-.15-.89-.51-.84-1.12.04-.57.37-.89.94-.95.23-.02.47-.02.7-.02,5.3,0,10.59,0,15.89,0Z"/>
      <path class="cls-1" d="M26.82,66.4c-5.37,0-10.73,0-16.1,0-.64,0-1.18-.13-1.32-.86-.12-.63.28-1.16.92-1.26.21-.03.42-.01.63-.01,10.59,0,21.18,0,31.77,0,.23,0,.48-.03.7.03.57.13.91.49.88,1.09-.03.6-.37.95-.97.99-.23.02-.47.01-.7.01-5.27,0-10.54,0-15.82,0Z"/>
      <path class="cls-1" d="M26.84,35.86c5.32,0,10.64,0,15.96,0,.21,0,.43-.02.63.02.59.12.9.49.88,1.09-.02.56-.35.9-.91.99-.14.02-.28,0-.42,0-10.75,0-21.51,0-32.26,0-.09,0-.19,0-.28,0-.65-.04-1.06-.45-1.06-1.06,0-.6.42-1.02,1.09-1.03,1.05-.02,2.11,0,3.16,0,4.41,0,8.81,0,13.22,0Z"/>
      <path class="cls-1" d="M6.56,41.53c.58.02,1.03.51,1.02,1.1-.01.6-.49,1.06-1.08,1.05-.58-.02-1.04-.51-1.03-1.1.01-.58.51-1.06,1.08-1.05Z"/>
      <path class="cls-1" d="M6.55,52.9c.58.02,1.04.52,1.02,1.12-.02.61-.5,1.04-1.11,1.01-.57-.03-1-.49-.99-1.06,0-.59.51-1.08,1.08-1.06Z"/>
      <path class="cls-1" d="M7.58,36.9c0,.61-.45,1.07-1.05,1.07-.6,0-1.06-.47-1.05-1.07.01-.57.45-1.02,1.02-1.03.61-.02,1.07.43,1.08,1.04Z"/>
      <path class="cls-1" d="M6.56,49.35c-.59.02-1.08-.45-1.09-1.04,0-.57.42-1.03.99-1.06.62-.03,1.09.39,1.12,1,.02.61-.42,1.09-1.02,1.11Z"/>
      <path class="cls-1" d="M7.58,59.69c0,.59-.5,1.07-1.08,1.05-.58-.02-1.05-.53-1.02-1.12.02-.57.48-1,1.05-1,.61,0,1.06.46,1.05,1.07Z"/>
      <path class="cls-1" d="M6.52,66.4c-.6,0-1.06-.48-1.04-1.08.02-.59.52-1.06,1.1-1.04.56.03,1,.49,1,1.06,0,.61-.45,1.06-1.06,1.06Z"/>
      <path class="cls-1" d="M47.77,23.84c.32-1.36-.11-2.46-1.08-3.43-.41-.41-.75-.9-1.09-1.38-.68-.93-.35-1.92.76-2.26.98-.3,1.98-.54,2.96-.85.28-.09.57-.31.75-.54.58-.79,1.1-1.63,1.66-2.44.76-1.11,1.77-1.11,2.53,0,.65.94,1.12,2.13,1.99,2.77.87.63,2.14.71,3.24,1.04,1.31.39,1.62,1.36.77,2.46-.56.72-1.16,1.41-1.68,2.16-.22.32-.37.75-.37,1.13-.02.93.06,1.87.09,2.81.04,1.32-.82,1.96-2.05,1.52-.22-.08-.45-.14-.65-.26-1.77-1.03-3.52-.9-5.29.03-1.93,1.01-2.89-.09-2.61-1.92.04-.28.04-.56.06-.84ZM56.04,24.58c0-.87.06-1.58-.02-2.27-.08-.78.12-1.41.63-1.99.47-.53.88-1.12,1.38-1.76-.73-.21-1.35-.43-1.98-.56-.86-.17-1.48-.61-1.91-1.38-.32-.58-.73-1.11-1.15-1.73-.39.58-.74,1.02-1,1.51-.49.94-1.22,1.48-2.28,1.66-.58.1-1.13.33-1.76.52.57.72,1.11,1.31,1.52,1.98.26.43.41.97.46,1.48.07.78.02,1.58.02,2.55,2.03-1.34,4.06-1.34,6.08-.01Z"/>
    </g>
  </g>
</svg>