<?xml version="1.0" encoding="UTF-8"?>
<svg id="Layer_2" data-name="Layer 2" xmlns="http://www.w3.org/2000/svg" viewBox="0 0 69.62 72">
  <defs>
    <style>
      .cls-1 {
        stroke-width: 0px;
      }
    </style>
  </defs>
  <g id="Layer_2-2" data-name="Layer 2">
    <g>
      <path class="cls-1" d="M32.57,0c2.04.47,4.09.94,6.13,1.41,1.16.27,2.33.5,3.46.85,1.87.58,3.25,1.81,4.15,3.55.29.55.21,1.05-.31,1.43-.47.34-1.12.29-1.41-.26-1.15-2.16-3.13-2.84-5.34-3.27-2.24-.44-4.46-.99-6.69-1.48-1.51-.33-2.97.06-4.42.42-1.97.48-3.95.93-5.92,1.41-2.58.64-4.1,2.57-4.11,5.23,0,1.71,0,3.42,0,5.29,8.96-2.98,17.88-3,26.88,0,0-.99,0-1.85,0-2.71,0-.32-.03-.72.13-.96.2-.29.58-.6.89-.62.32-.02.68.29.97.51.12.09.16.35.15.52-.03,1.75-.08,3.51-.09,5.26,0,.22.08.5.23.65.62.62,1.02,1.34,1.04,2.23.03.96.07,1.92.01,2.88-.11,1.7-1.03,2.78-2.67,3.17-.38.09-.54.22-.59.61-.52,3.7-2.31,6.63-5.35,8.77-.41.29-.59.58-.56,1.09.04.89,0,1.78.02,2.67.01.37.09.74.2,1.1.1.34.28.53.72.45.35-.06.74.01,1.1.11,4,1.1,8,2.21,12,3.34.56.16,1.13.33,1.65.59.98.48,1.91.94,3.07,1,1.06.06,1.73,1.01,1.68,2.24-.03.86.58.86,1.05,1.14.48.28.71-.02.99-.3,1.04-1.01,2.23-1.01,3.29,0,.51.49,1,.99,1.49,1.49,1.04,1.07,1.09,2.32,0,3.34-.53.5-.28.87-.13,1.35.16.49.42.67.96.67,1.46,0,2.34.9,2.38,2.37.02.7.02,1.41,0,2.11-.04,1.46-.93,2.36-2.4,2.35-.5,0-.78.13-.92.62-.13.46-.49.84.06,1.36,1.12,1.06,1.09,2.29.02,3.39-.51.52-1.01,1.04-1.54,1.54-1,.95-2.18.94-3.18-.02-.33-.32-.59-.6-1.12-.31-.49.26-1.02.34-.96,1.12.09,1.14-.61,1.85-1.59,2.31h-3.65c-.86-.45-1.51-1.07-1.58-2.16-.37,0-.69,0-1.01,0-15.86,0-31.73,0-47.59,0-.97,0-1.93-.09-2.72-.72-1.15-.9-1.6-2.11-1.37-3.55.3-1.85.63-3.69.94-5.53.14-.84.63-1.32,1.26-1.22.66.11.98.65.85,1.51-.28,1.78-.59,3.55-.88,5.33-.23,1.42.28,2.01,1.72,2.01,9.43,0,18.86,0,28.29,0,4.38,0,8.75,0,13.13,0h.7c-.3-.6-.67-1.12-.82-1.7-.19-.78.12-1.5.75-2,.59-.47.22-.89.07-1.36-.14-.43-.34-.63-.84-.62-1.58,0-2.41-.84-2.44-2.42-.01-.7-.02-1.41,0-2.11.05-1.44.91-2.29,2.36-2.3.48,0,.78-.1.93-.61.15-.5.45-.9-.11-1.42-1.06-.99-1.02-2.24-.02-3.28.49-.51.99-1,1.49-1.49,1.08-1.05,2.31-1.1,3.32-.01.56.6.95.23,1.46.08.52-.15.56-.47.59-.94.03-.52.21-1.03.34-1.62-1.65-.46-3.37-.92-5.08-1.45-.77-.24-1.26-.18-1.82.52-1.55,1.91-3.21,3.72-4.83,5.57-1.5,1.71-3.13,2.15-5.29,1.42-1.35-.46-2.69-.94-4.05-1.36-.33-.1-.74-.09-1.06,0-1.4.44-2.78.94-4.18,1.41-1.96.66-3.64.21-5.01-1.34-1.78-2.02-3.56-4.04-5.31-6.08-.29-.33-.53-.41-.95-.29-1.94.58-3.93,1.05-5.84,1.7-2.99,1.02-4.66,3.22-5.23,6.29-.16.87-.29,1.75-.44,2.63-.14.78-.63,1.18-1.29,1.06-.59-.1-.92-.59-.81-1.34.31-1.98.49-4,1.45-5.82,1.37-2.6,3.49-4.29,6.31-5.08,4.09-1.15,8.18-2.29,12.27-3.43.29-.08.63-.19.89-.12.7.2.94-.24.98-.73.09-1.3.11-2.62.12-3.93,0-.15-.21-.35-.36-.46-3.29-2.27-5.14-5.42-5.64-9.4-.37-.11-.76-.19-1.11-.34-1.28-.54-1.99-1.54-2.08-2.92-.06-.91-.04-1.83,0-2.74.03-.95.39-1.77,1.09-2.43.13-.12.26-.34.26-.51-.01-2.83-.16-5.67-.04-8.49.13-2.98,2.53-5.5,5.69-6.26,2.7-.65,5.41-1.25,8.11-1.88.06-.01.12-.07.18-.11.84,0,1.68,0,2.53,0ZM17.08,19.42c-.07,0-.15.02-.22.03,0,.79,0,1.57,0,2.36,0,1.21.45,1.65,1.65,1.67,1.19.02,1.51.34,1.56,1.55.06,1.45.43,2.82,1.08,4.11,3.7,7.31,14.09,8.46,19.41,2.16,1.6-1.89,2.35-4.11,2.53-6.56.07-.98.39-1.23,1.39-1.26.32,0,.7.01.95-.14.31-.19.7-.54.72-.85.09-1.01.03-2.04.03-3.27-1.45,1.82-3.11,1.61-4.94,1.13-2.09-.55-4.24-.96-6.39-1.2-4.56-.5-9.06,0-13.44,1.31-1.68.51-3.13.36-4.33-1.04ZM63.21,49.68c-1.03,1.36-2.22,1.42-3.7.82-1.51-.61-2.24-1.58-2.06-3.19h-2.59c.25,1.66-.54,2.57-2.01,3.19-1.49.62-2.71.55-3.66-.73-.65.64-1.23,1.21-1.86,1.83,1.31.96,1.37,2.15.77,3.64-.61,1.51-1.56,2.26-3.14,2.08v2.61c1.74-.3,2.54.64,3.17,2.06.65,1.49.42,2.66-.7,3.55.6.66,1.14,1.26,1.74,1.92,1-1.38,2.2-1.39,3.67-.79,1.5.61,2.28,1.56,2.02,3.23.53,0,.92,0,1.32,0s.82,0,1.22,0c.15-2.01.42-2.42,1.7-3.03,1.51-.73,2.94-1.05,4.18.74.35-.41.6-.75.9-1.04.3-.28.66-.51.99-.76-.1-.04-.21-.08-.31-.12-.33-.63-.85-1.22-.96-1.88-.32-1.88,1.22-3.74,3.1-3.94.16-.02.42-.19.43-.3.04-.73.02-1.47.02-2.3-1.76.22-2.61-.62-3.21-2.09-.61-1.49-.42-2.66.8-3.65-.62-.63-1.17-1.19-1.82-1.84ZM31.56,47.78c2.18-2.07,4.29-4.08,6.27-5.96-.29-.98-.63-1.8-.75-2.66-.12-.85-.03-1.74-.03-2.72-3.76,1.51-7.33,1.46-10.94.04-.04,1.86.25,3.67-1.02,5.17,2.17,2.06,4.28,4.07,6.46,6.14ZM44.76,16.77c-8.81-3.07-17.59-3.08-26.38,0,.35,1.77.82,2.07,2.43,1.64.07-.02.13-.05.2-.07,5.38-1.53,10.85-1.92,16.37-1.03,1.77.29,3.51.77,5.25,1.18,1.11.26,1.7-.05,2-1.15.05-.18.08-.36.13-.58ZM18.4,43.52c1.81,2.05,3.52,4.05,5.33,5.97.36.38,1.13.68,1.62.58,1.39-.28,2.74-.78,4.23-1.23-2.31-2.19-4.48-4.25-6.65-6.3-.11-.11-.34-.19-.48-.16-1.32.35-2.63.73-4.05,1.13ZM44.72,43.51c-1.35-.38-2.59-.7-3.81-1.08-.41-.13-.64,0-.91.25-1.82,1.75-3.65,3.48-5.48,5.22-.28.27-.59.52-1.04.91,1.51.47,2.8.91,4.11,1.26.69.18,1.36-.06,1.84-.6,1.75-1.95,3.47-3.91,5.29-5.96Z"/>
      <path class="cls-1" d="M21.06,56.13c1.24,0,2.48-.01,3.71,0,1.34.01,2.01.69,2.02,2.04,0,.7.01,1.4,0,2.11-.02,1.3-.69,1.98-2,1.99-2.48.02-4.95.02-7.43,0-1.29-.01-1.92-.68-1.93-1.97,0-.75,0-1.5,0-2.25.01-1.24.66-1.9,1.9-1.92,1.24-.02,2.48,0,3.71,0ZM24.63,58.34h-7.04v1.72h7.04v-1.72Z"/>
      <path class="cls-1" d="M56.21,63.7c-2.84,0-5.12-2.26-5.15-5.1-.03-2.81,2.29-5.15,5.1-5.16,2.81,0,5.14,2.29,5.17,5.11.03,2.79-2.31,5.14-5.12,5.15ZM53.19,58.57c0,1.66,1.32,3.01,2.96,3.03,1.66.02,3.04-1.37,3.02-3.04-.02-1.64-1.38-3.01-3-3-1.64.01-2.98,1.36-2.98,3.02Z"/>
    </g>
  </g>
</svg>