<?xml version="1.0" encoding="UTF-8"?>
<svg id="Layer_2" data-name="Layer 2" xmlns="http://www.w3.org/2000/svg" viewBox="0 0 65.11 72">
  <defs>
    <style>
      .cls-1, .cls-2 {
        stroke-width: 0px;
      }

      .cls-2 {
        fill: none;
      }
    </style>
  </defs>
  <g id="Layer_3" data-name="Layer 3">
    <g>
      <path class="cls-2" d="M23.98,47.81c.49-.33,1.01-.57,1.39-.95.93-.94,1.88-1.17,3.06-.45.37.22.56.42.61.82.09.72.18,1.44.3,2.15.1.61.45.96,1.09.97,1.4,0,2.81,0,4.21,0,.67,0,1.04-.35,1.14-1,.06-.35.14-.69.14-1.04,0-1.16.37-2.02,1.65-2.22.02,0,.05-.01.06-.03.42-.3.78-.25,1.18.09.49.43,1.03.8,1.56,1.19.66.48,1.11.47,1.68-.09.95-.93,1.9-1.88,2.83-2.83.55-.56.57-.98.11-1.62-.44-.61-.9-1.19-1.34-1.8-.11-.15-.22-.39-.17-.54.19-.57.44-1.13.7-1.68.06-.13.26-.23.42-.26.74-.12,1.48-.21,2.22-.32.86-.13,1.17-.5,1.18-1.36,0-1.12,0-2.25,0-3.37,0-1.43-.2-1.72-1.6-1.81-1.41-.09-2.59-.39-2.83-2.04-.04-.24-.02-.54.1-.73.41-.62.89-1.2,1.33-1.81.46-.64.44-1.06-.11-1.62-.93-.95-1.88-1.9-2.83-2.83-.57-.56-1.01-.58-1.68-.09-.59.43-1.16.87-1.74,1.3-.13.09-.31.25-.42.21-.66-.23-1.34-.44-1.92-.81-.22-.14-.19-.68-.26-1.04-.09-.53-.17-1.06-.25-1.59-.12-.76-.44-1.06-1.21-1.07-1.03,0-2.06,0-3.09,0-2.04,0-2.09,0-2.28,2.08-.1,1.1-.34,2-1.62,2.17-.09.01-.17.11-.25.11-.29,0-.64.05-.86-.09-.61-.38-1.16-.86-1.75-1.28-.66-.48-1.09-.44-1.67.13-.92.9-1.83,1.81-2.73,2.73-.64.65-.66,1.04-.12,1.78.12.17.23.37.38.5,1.1.97,1.27,2.06.45,3.27-.12.18-.33.38-.52.42-.75.15-1.52.22-2.28.35-.79.14-1.08.49-1.08,1.29,0,1.24,0,2.48,0,3.72,0,1.03.32,1.37,1.35,1.5.67.08,1.34.17,2.01.29.19.04.42.19.5.35.8,1.73.79,1.74-.36,3.28-.15.21-.31.41-.46.62-.49.68-.48,1.09.1,1.67.93.95,1.87,1.9,2.84,2.82.22.21.53.33.89.54ZM4.09,33.63c1.03,0,2.06.02,3.08,0,.67-.01,1.08-.43,1.09-1.02.01-.62-.43-1.08-1.12-1.09-2.01-.02-4.02-.02-6.02,0C.43,31.52,0,31.97,0,32.59c0,.62.43,1.03,1.15,1.04.98.02,1.96,0,2.94,0ZM60.98,33.63c.98,0,1.96.01,2.94,0,.76-.01,1.21-.43,1.19-1.07-.01-.64-.47-1.04-1.23-1.05-1.94,0-3.88,0-5.81,0-.76,0-1.21.41-1.23,1.05-.01.65.42,1.06,1.19,1.07.98.02,1.96,0,2.94,0ZM50.41,15.87c.38-.25.71-.39.95-.62,1.37-1.34,2.72-2.7,4.07-4.06.55-.56.59-1.23.14-1.67-.44-.43-1.07-.38-1.61.15-.75.73-1.49,1.48-2.23,2.23-.68.68-1.4,1.32-2,2.06-.21.26-.27.8-.16,1.13.1.3.53.5.86.78ZM10.24,9.1c-.32.26-.7.43-.89.73-.26.43-.14.9.24,1.27,1.39,1.39,2.77,2.78,4.16,4.16.58.58,1.19.61,1.66.12.44-.46.4-1.05-.15-1.61-1.36-1.38-2.73-2.75-4.12-4.11-.22-.22-.53-.34-.9-.57ZM42.05,10.02c.14-.12.54-.31.69-.62.36-.73.64-1.5.9-2.28.2-.59-.08-1.14-.59-1.33-.53-.2-1.11,0-1.35.56-.34.77-.65,1.55-.91,2.35-.22.68.32,1.33,1.27,1.31ZM24.52,9.07c-.46-1.09-.81-2.06-1.29-2.96-.24-.46-.79-.48-1.25-.26-.47.22-.71.65-.54,1.16.28.84.6,1.67.96,2.48.24.52.76.69,1.25.46.35-.16.58-.57.88-.87ZM10.02,23.11c-.13-.16-.31-.56-.62-.72-.73-.36-1.5-.64-2.28-.9-.57-.19-1.01.06-1.26.59-.26.57-.06,1.06.45,1.31.77.38,1.59.69,2.41.93.68.2,1.29-.32,1.29-1.22ZM56.03,24.56c1.09-.48,2.07-.85,2.97-1.34.4-.22.52-.8.19-1.17-.25-.29-.76-.62-1.06-.55-.87.21-1.71.57-2.53.95-.46.22-.67.71-.43,1.19.17.35.55.6.87.93Z"/>
      <path class="cls-1" d="M31.43,72c-.38-.11-.76-.2-1.13-.33-2-.67-3.49-1.94-4.46-3.82-.12-.23-.38-.46-.62-.55-2.02-.73-3.18-2.34-3.19-4.47,0-2.02,0-4.03,0-6.05,0-2.03-.76-3.69-2.41-4.89-3.98-2.88-6.92-6.59-8.39-11.3-2.75-8.78-.84-16.52,5.49-23.17.61-.64,1.22-.68,1.7-.16.44.46.37,1.09-.2,1.67-2.88,2.89-4.89,6.29-5.62,10.32-1.49,8.24,1.04,15.07,7.55,20.32,1.87,1.51,3.43,3.09,3.89,5.53.03.14.37.31.57.31,1.73.02,3.46.01,5.19.01,1.05,0,2.11,0,3.16,0,.86,0,1.35.41,1.34,1.09-.01.67-.45,1.03-1.3,1.03-2.67,0-5.33,0-8,0-.25,0-.5,0-.84,0,0,1.35,0,2.63,0,3.91,0,.45,0,.89,0,1.34.03,1.51.97,2.56,2.48,2.58,3.95.04,7.91.03,11.86,0,1.34,0,2.39-.86,2.46-2.13.1-1.86.03-3.74.03-5.69-1.09,0-2.13,0-3.18,0-.88,0-1.38-.37-1.4-1.03-.02-.68.52-1.09,1.42-1.09.91,0,1.82-.01,2.74,0,.35,0,.53-.08.61-.48.41-2.04,1.52-3.65,3.2-4.86,4.18-3.03,6.92-7.05,8.1-12.09,2.66-11.31-4.71-22.55-16.15-24.67-5.11-.95-9.89-.02-14.33,2.66-.1.06-.2.12-.3.18-.66.38-1.26.28-1.59-.25-.34-.53-.16-1.15.47-1.55,2.18-1.4,4.54-2.39,7.07-2.96,12.37-2.8,24.71,5.11,27.05,17.63,1.7,9.11-1.33,16.67-8.6,22.4-2.01,1.59-3.08,3.41-2.97,5.98.08,1.82.02,3.66.01,5.48,0,2.03-1.17,3.68-3.07,4.33-.41.14-.64.36-.83.74-1.09,2.1-2.81,3.39-5.12,3.9-.13.03-.26.09-.38.14h-2.25ZM28.25,67.54c.79,1.63,3.1,2.48,4.61,2.34,1.69-.16,3.08-.85,4.11-2.39-2.94,0-5.73,0-8.53,0-.06,0-.12.03-.19.05Z"/>
      <path class="cls-1" d="M32.98,0c.5.38.68.89.67,1.52-.03,1.76,0,3.51,0,5.27,0,.14,0,.28-.01.42-.08.66-.49,1.08-1.07,1.08-.58,0-1.05-.42-1.06-1.08-.03-2.04-.04-4.08.02-6.11.01-.37.41-.73.63-1.09.28,0,.56,0,.84,0Z"/>
      <path class="cls-1" d="M23.98,47.81c-.36-.21-.67-.33-.89-.54-.96-.93-1.9-1.87-2.84-2.82-.58-.59-.59-.99-.1-1.67.15-.21.31-.41.46-.62,1.16-1.54,1.17-1.54.36-3.28-.08-.16-.31-.32-.5-.35-.66-.13-1.34-.21-2.01-.29-1.02-.13-1.34-.47-1.35-1.5,0-1.24,0-2.48,0-3.72,0-.8.29-1.15,1.08-1.29.76-.13,1.53-.2,2.28-.35.2-.04.4-.24.52-.42.82-1.22.65-2.31-.45-3.27-.15-.14-.26-.33-.38-.5-.54-.74-.52-1.13.12-1.78.9-.92,1.81-1.83,2.73-2.73.59-.58,1.01-.61,1.67-.13.59.42,1.14.9,1.75,1.28.22.14.57.08.86.09.08,0,.17-.1.25-.11,1.28-.18,1.52-1.07,1.62-2.17.19-2.07.24-2.08,2.28-2.08,1.03,0,2.06,0,3.09,0,.77,0,1.09.3,1.21,1.07.08.53.16,1.06.25,1.59.06.36.04.91.26,1.04.58.37,1.26.58,1.92.81.1.04.29-.12.42-.21.58-.43,1.16-.87,1.74-1.3.67-.49,1.1-.47,1.68.09.95.93,1.9,1.88,2.83,2.83.55.56.57.98.11,1.62-.44.61-.92,1.18-1.33,1.81-.12.19-.14.49-.1.73.24,1.64,1.42,1.95,2.83,2.04,1.4.09,1.6.38,1.6,1.81,0,1.12,0,2.25,0,3.37,0,.86-.32,1.23-1.18,1.36-.74.11-1.48.2-2.22.32-.15.03-.36.13-.42.26-.26.55-.5,1.11-.7,1.68-.05.15.07.39.17.54.43.61.9,1.2,1.34,1.8.46.64.44,1.06-.11,1.62-.93.95-1.88,1.9-2.83,2.83-.57.56-1.02.57-1.68.09-.53-.39-1.07-.76-1.56-1.19-.4-.35-.76-.4-1.18-.09-.02.01-.04.02-.06.03-1.28.2-1.65,1.06-1.65,2.22,0,.35-.08.7-.14,1.04-.1.65-.47,1-1.14,1-1.4,0-2.81,0-4.21,0-.64,0-.99-.35-1.09-.97-.11-.72-.21-1.43-.3-2.15-.05-.4-.24-.6-.61-.82-1.19-.72-2.13-.5-3.06.45-.38.38-.9.62-1.39.95ZM41.05,24.7c-.66.49-1.29.94-1.89,1.42-.5.4-.99.39-1.56.11-.79-.39-1.61-.76-2.45-1.02-.69-.22-.99-.61-1.06-1.3-.08-.74-.21-1.47-.32-2.22h-2.46c-.11.81-.23,1.57-.32,2.33-.08.63-.4.98-1.02,1.19-.86.29-1.69.66-2.51,1.04-.54.25-1.01.27-1.5-.12-.62-.49-1.27-.95-2.08-1.56-.24.32-.46.66-.73.95-.28.3-.62.55-.93.81.55.74.98,1.36,1.46,1.93.44.54.47,1.05.13,1.67-.35.63-.71,1.29-.86,1.99-.23,1.06-.83,1.45-1.85,1.54-1.95.18-1.93.21-1.88,2.19.01.43.18.57.56.62.63.07,1.25.2,1.87.25.66.06.95.46,1.16,1.04.3.83.63,1.66,1.02,2.45.29.58.27,1.05-.13,1.55-.49.62-.95,1.27-1.36,1.82.59.63,1.13,1.2,1.69,1.81.65-.49,1.29-.95,1.92-1.44.48-.38.95-.37,1.5-.11.82.39,1.65.76,2.51,1.05.66.21.95.6,1.02,1.25.09.76.21,1.51.32,2.27h2.46c.11-.79.23-1.55.32-2.31.08-.62.37-1,.99-1.2.84-.27,1.66-.61,2.45-1.01.62-.32,1.13-.31,1.67.13.59.48,1.22.92,1.77,1.32.62-.61,1.18-1.16,1.77-1.73-.47-.63-.96-1.29-1.45-1.94-.33-.44-.35-.86-.11-1.37.41-.89.78-1.8,1.13-2.71.19-.49.46-.79,1-.84.3-.03.6-.1.9-.13q1.62-.18,1.62-1.8c0-.28,0-.56,0-.9-.83-.13-1.61-.26-2.39-.35-.64-.07-.98-.42-1.19-1.02-.3-.86-.64-1.7-1.04-2.52-.27-.56-.25-1.01.13-1.49.49-.62.95-1.27,1.4-1.87-.58-.6-1.12-1.17-1.71-1.79Z"/>
      <path class="cls-1" d="M4.09,33.63c-.98,0-1.96.01-2.94,0C.43,33.62,0,33.21,0,32.59c0-.62.43-1.07,1.13-1.07,2.01-.02,4.02-.02,6.02,0,.69,0,1.13.47,1.12,1.09,0,.59-.43,1.01-1.09,1.02-1.03.02-2.05,0-3.08,0Z"/>
      <path class="cls-1" d="M60.98,33.63c-.98,0-1.96.01-2.94,0-.77-.01-1.2-.42-1.19-1.07.01-.64.46-1.04,1.23-1.05,1.94,0,3.88,0,5.81,0,.76,0,1.22.41,1.23,1.05.01.64-.43,1.06-1.19,1.07-.98.02-1.96,0-2.94,0Z"/>
      <path class="cls-1" d="M50.41,15.87c-.33-.28-.75-.47-.86-.78-.11-.33-.05-.87.16-1.13.6-.74,1.32-1.38,2-2.06.74-.74,1.48-1.49,2.23-2.23.54-.53,1.17-.57,1.61-.15.46.44.42,1.11-.14,1.67-1.35,1.36-2.7,2.72-4.07,4.06-.24.23-.56.37-.95.62Z"/>
      <path class="cls-1" d="M10.24,9.1c.37.23.69.35.9.57,1.38,1.36,2.75,2.73,4.12,4.11.55.55.59,1.15.15,1.61-.46.49-1.08.46-1.66-.12-1.39-1.38-2.77-2.78-4.16-4.16-.38-.37-.5-.84-.24-1.27.18-.3.56-.47.89-.73Z"/>
      <path class="cls-1" d="M42.05,10.02c-.95.02-1.49-.63-1.27-1.31.26-.8.58-1.58.91-2.35.24-.55.82-.76,1.35-.56.51.19.79.74.59,1.33-.26.77-.54,1.55-.9,2.28-.15.31-.55.49-.69.62Z"/>
      <path class="cls-1" d="M24.52,9.07c-.29.3-.53.71-.88.87-.48.23-1.01.06-1.25-.46-.37-.81-.68-1.64-.96-2.48-.17-.51.08-.94.54-1.16.46-.22,1.01-.2,1.25.26.47.9.82,1.87,1.29,2.96Z"/>
      <path class="cls-1" d="M10.02,23.11c0,.9-.61,1.43-1.29,1.22-.82-.25-1.64-.56-2.41-.93-.51-.25-.72-.74-.45-1.31.25-.53.68-.79,1.26-.59.77.26,1.55.53,2.28.9.31.15.49.56.62.72Z"/>
      <path class="cls-1" d="M56.03,24.56c-.32-.33-.7-.58-.87-.93-.24-.47-.03-.97.43-1.19.82-.38,1.66-.75,2.53-.95.3-.07.81.26,1.06.55.33.37.22.95-.19,1.17-.91.5-1.88.86-2.97,1.34Z"/>
      <path class="cls-1" d="M32.56,41.77c-3.77,0-6.85-3.07-6.85-6.82,0-3.76,3.08-6.82,6.85-6.82,3.77,0,6.85,3.07,6.85,6.82,0,3.76-3.08,6.82-6.85,6.82ZM37.24,34.97c.01-2.58-2.05-4.7-4.62-4.74-2.59-.04-4.73,2.08-4.75,4.69-.02,2.58,2.06,4.71,4.63,4.74,2.61.03,4.73-2.07,4.74-4.69Z"/>
    </g>
  </g>
</svg>