<?xml version="1.0" encoding="UTF-8"?>
<svg id="Layer_2" data-name="Layer 2" xmlns="http://www.w3.org/2000/svg" viewBox="0 0 72 55.23">
  <defs>
    <style>
      .cls-1 {
        stroke-width: 0px;
      }
    </style>
  </defs>
  <g id="Layer_5" data-name="Layer 5">
    <g>
      <path class="cls-1" d="M72,13.52c-.57,1.25-1.05,2.55-1.73,3.73-5.69,9.93-11.41,19.84-17.14,29.74-.23.39-.55.78-.92,1.03-3.41,2.28-6.84,4.53-10.26,6.79-.42.28-.82.57-1.36.28-.55-.3-.56-.81-.53-1.34.25-4.1.48-8.2.75-12.3.03-.43.18-.88.39-1.25,6-10.45,12.02-20.89,18.04-31.33,1.5-2.61,4.12-3.3,6.72-1.81,1.14.65,2.26,1.32,3.41,1.97,1.39.79,2.28,1.92,2.5,3.53.01.09.07.17.11.26v.7ZM67.23,18.56c-2.84-1.64-5.63-3.25-8.45-4.89-5.21,9.04-10.38,18.01-15.58,27.03,2.85,1.65,5.63,3.26,8.45,4.89,5.2-9.03,10.36-17.99,15.58-27.03ZM68.22,16.83c.44-.75.84-1.43,1.23-2.12.1-.18.21-.37.29-.56.47-1.12.12-2.47-.91-3.11-1.41-.88-2.85-1.71-4.31-2.49-1.12-.6-2.47-.27-3.18.77-.56.82-1.03,1.71-1.56,2.63,2.82,1.63,5.59,3.24,8.45,4.89ZM42.17,52.28c2.7-1.79,5.3-3.51,7.96-5.27-2.52-1.45-4.91-2.84-7.38-4.26-.2,3.23-.38,6.31-.58,9.53Z"/>
      <path class="cls-1" d="M42.91,6.97c-1.71,1.08-3.48,2.17-5.22,3.31-.6.4-1.12.42-1.76.09-.68-.35-1.4-.67-2.13-.89-.7-.21-1.03-.64-1.17-1.32-.4-1.88-.85-3.75-1.25-5.63-.09-.42-.26-.53-.65-.53-2.11.01-4.22.02-6.33,0-.41,0-.57.15-.66.54-.41,1.9-.86,3.79-1.26,5.69-.14.64-.45,1.02-1.09,1.23-.8.26-1.58.6-2.33.97-.55.27-1,.24-1.51-.08-1.79-1.16-3.6-2.29-5.36-3.4-1.74,1.75-3.46,3.47-5.23,5.25.06.11.15.29.26.46,1.01,1.61,2,3.23,3.04,4.82.37.57.44,1.07.12,1.7-.37.73-.69,1.49-.94,2.27-.21.64-.6.95-1.23,1.08-1.87.41-3.74.86-5.61,1.25-.43.09-.58.26-.57.69.02,2.09.02,4.18,0,6.27,0,.42.11.62.55.71,1.85.39,3.69.86,5.55,1.23.73.15,1.14.51,1.37,1.22.26.78.59,1.53.94,2.27.26.52.23.96-.08,1.45-1.15,1.8-2.28,3.61-3.37,5.33,1.76,1.77,3.49,3.51,5.27,5.29,1.64-1.04,3.42-2.13,5.15-3.28.63-.41,1.16-.44,1.82-.09.7.37,1.45.67,2.2.91.61.2.91.57,1.04,1.18.41,1.9.84,3.8,1.27,5.69.04.18.11.35.18.56,2.32,0,4.62.01,6.91-.02.18,0,.46-.28.51-.48.45-1.84.89-3.69,1.26-5.55.16-.78.54-1.22,1.3-1.47.8-.26,1.55-.64,2.33-.98.63-.27,1.17-.12,1.44.41.27.54.08,1.05-.57,1.38-.67.33-1.38.59-2.04.94-.25.13-.52.41-.59.67-.46,1.91-.88,3.84-1.3,5.76-.26,1.16-.49,1.36-1.65,1.36-2.67,0-5.35,0-8.02,0-.98,0-1.23-.2-1.45-1.15-.45-1.96-.92-3.92-1.34-5.89-.09-.42-.31-.59-.65-.8-1.18-.73-2.15-.5-3.22.29-1.32.97-2.76,1.76-4.14,2.65-.59.38-1.07.33-1.57-.17-2.01-2.03-4.04-4.06-6.07-6.08-.5-.5-.53-.99-.15-1.57,1.08-1.68,2.12-3.38,3.21-5.05.3-.46.28-.82.14-1.35-.33-1.29-1.16-1.71-2.38-1.91-1.64-.26-3.24-.73-4.86-1.08-.7-.15-1-.56-1-1.23,0-2.87,0-5.73,0-8.6,0-.64.29-1.04.96-1.19,2.03-.45,4.06-.94,6.09-1.37.43-.09.58-.33.79-.67.73-1.18.48-2.16-.32-3.23-.95-1.28-1.73-2.68-2.57-4.03-.49-.79-.47-1.09.17-1.73,1.99-2,3.99-3.98,5.97-5.98.52-.52,1.01-.57,1.62-.18,1.71,1.1,3.45,2.17,5.16,3.28.39.25.68.2,1.1.1,1.29-.33,1.84-1.12,2.02-2.45.22-1.62.72-3.2,1.06-4.8C22.2.33,22.59,0,23.31,0c2.84,0,5.67,0,8.51,0,.68,0,1.09.29,1.24.99.44,2.01.92,4.02,1.36,6.03.09.44.34.62.71.85,1.16.7,2.11.48,3.16-.3,1.28-.95,2.68-1.73,4.02-2.58.84-.53,1.12-.5,1.84.21,1.94,1.94,3.88,3.88,5.82,5.83.67.67.7.98.19,1.79-1.07,1.71-2.14,3.42-3.23,5.12-.23.36-.2.63-.09,1.03.34,1.23,1.02,1.93,2.35,2.04.71.06,1.04.6.93,1.16-.12.61-.63.91-1.36.77-.69-.14-1.4-.24-2.04-.49-.38-.15-.78-.51-.97-.88-.42-.81-.68-1.69-1.07-2.52-.25-.53-.2-.97.11-1.45,1.15-1.8,2.28-3.61,3.38-5.36-1.75-1.74-3.47-3.47-5.26-5.26Z"/>
      <path class="cls-1" d="M42.15,27.61c.02,8-6.58,14.61-14.58,14.62-8.01,0-14.58-6.58-14.57-14.61,0-8.06,6.55-14.63,14.56-14.62,8.02,0,14.57,6.57,14.59,14.61ZM23.29,39.4c0-1.02-.03-1.98.01-2.94.02-.52-.17-.78-.6-1.05-3.1-2-4.64-4.88-4.41-8.55.22-3.47,1.99-6.05,5.07-7.68,1.26-.67,1.91-.25,1.91,1.17,0,2.14,0,4.27,0,6.43h4.53c0-2.2,0-4.34,0-6.47,0-1.38.66-1.79,1.89-1.14,3.08,1.62,4.86,4.19,5.09,7.66.25,3.68-1.29,6.55-4.36,8.59-.23.15-.57.39-.58.6-.06,1.11-.03,2.23-.03,3.37,5.02-1.17,8.81-7.32,8.25-13.25-.57-6.05-5.94-10.96-12.13-11.1-6.63-.15-12.04,4.45-12.86,11.21-.79,6.45,3.48,11.6,8.22,13.16ZM31.81,21.58c0,.41,0,.66,0,.91,0,1.69,0,3.38,0,5.07,0,.93-.36,1.29-1.26,1.3-2.02,0-4.03.01-6.05,0-.84,0-1.2-.37-1.2-1.21-.01-1.79,0-3.57,0-5.36,0-.2-.02-.4-.05-.75-.44.41-.8.71-1.11,1.05-3.25,3.65-2.17,9.27,2.2,11.44.68.34.97.77.95,1.53-.04,1.47-.01,2.95-.01,4.5h4.53c0-1.54.04-2.95-.01-4.36-.03-.83.25-1.33,1.02-1.71,3.18-1.58,4.72-5.14,3.74-8.54-.45-1.54-1.29-2.82-2.74-3.88Z"/>
    </g>
  </g>
</svg>