<?xml version="1.0" encoding="UTF-8"?>
<svg id="Layer_2" data-name="Layer 2" xmlns="http://www.w3.org/2000/svg" viewBox="0 0 71.87 71.86">
  <defs>
    <style>
      .cls-1 {
        stroke-width: 0px;
      }
    </style>
  </defs>
  <g id="Layer_1-2" data-name="Layer 1">
    <g>
      <path class="cls-1" d="M0,47.16c1.27.31,2.58.38,3.87.56,3.75.51,7.5.97,11.25,1.46.37.05.73.14,1.07.3,3.75,1.68,7.5,3.35,11.25,5.02,1.65.73,2.92,1.78,3.11,3.72.04.42.32.32.56.32,1.33,0,2.67,0,4,0,3.24,0,5.21,1.96,5.17,5.19,0,.37.13.41.44.43,2.64.19,4.4,1.86,4.68,4.44.19,1.74-1.12,3.24-2.87,3.26-.91.01-1.82-.01-2.74,0-.36,0-.47-.1-.49-.47-.06-1.64-.07-1.63,1.56-1.63.44,0,.89,0,1.33,0,.85-.01,1.13-.34,1.05-1.18-.13-1.32-1.3-2.3-2.81-2.31-2.74-.01-5.47,0-8.21,0-2.43,0-4.87-.01-7.3.01-.47,0-.78-.15-1.08-.48-1.65-1.79-3.32-3.55-4.97-5.34-.33-.35-.68-.59-1.16-.72-1.89-.52-3.76-1.1-5.65-1.62-.46-.13-.58-.27-.43-.76.45-1.47.42-1.47,1.88-1.05,4.14,1.21,8.28,2.42,12.43,3.61,1.44.42,2.71-.55,2.42-1.84-.18-.78-.82-1.17-1.48-1.49-1.01-.48-2.04-.92-3.06-1.38-2.22-.99-4.46-1.92-6.64-2.99-1.57-.77-3.21-1.07-4.91-1.27-3.13-.38-6.25-.79-9.38-1.22-.57-.08-.82-.04-.8.66.05,2.81.03,5.61,0,8.42,0,.51.08.8.67.71,1.67-.26,3.03.36,4.42,1.26,4.5,2.94,9.07,5.76,13.61,8.64.39.25.78.36,1.24.36,4.82-.01,9.64,0,14.45-.02.58,0,.76.13.74.73-.04,1.39,0,1.39-1.4,1.39-4.82,0-9.64,0-14.45,0-.46,0-.85-.11-1.24-.36-5.03-3.19-10.07-6.36-15.11-9.55-.39-.25-.78-.37-1.24-.36-1.26.03-2.53.01-3.79.01v-14.46ZM22.67,61.17s-.06.09-.08.14c.76.82,1.53,1.63,2.28,2.46.26.29.54.38.91.38,3.77-.01,7.53,0,11.3,0,.96,0,1.3-.45,1.07-1.39-.3-1.27-1.34-2.06-2.81-2.08-1.71-.02-3.41,0-5.12-.01-.33,0-.56.12-.79.34-1.15,1.07-2.49,1.41-4.01.96-.91-.27-1.83-.53-2.74-.8Z"/>
      <path class="cls-1" d="M32.56,0c0,.4,0,.79,0,1.19q0,.91-.95.91c-.68,0-1.36-.01-2.03,0-.73.02-1,.33-.96,1.06.07,1.4,1.28,2.43,2.91,2.43,3.62,0,7.25,0,10.87,0,1.5,0,2.99.02,4.49-.01.48,0,.82.13,1.15.49,1.68,1.83,3.38,3.62,5.07,5.44.26.28.55.47.93.58,1.93.54,3.85,1.13,5.78,1.66.48.13.56.3.41.77-.44,1.44-.42,1.46-1.89,1.03-4.1-1.18-8.2-2.37-12.29-3.57-.48-.14-.95-.23-1.44-.06-1.18.4-1.52,1.74-.66,2.64.38.4.86.64,1.35.86,3.58,1.6,7.16,3.18,10.73,4.8,1.16.53,2.41.51,3.63.68,3.14.45,6.3.82,9.44,1.26.55.08.67-.07.66-.6-.03-2.85-.03-5.71,0-8.56,0-.54-.16-.72-.67-.64-1.67.26-3.04-.36-4.42-1.26-4.5-2.93-9.07-5.76-13.61-8.63-.39-.25-.77-.37-1.24-.36-4.82.01-9.63,0-14.45.02-.56,0-.82-.1-.74-.71.06-.46.03-.93.03-1.4,5.52,0,11.04,0,16.56,0,2.85,1.82,5.71,3.64,8.57,5.45,2.33,1.48,4.67,2.94,6.99,4.42.41.26.81.4,1.3.39,1.1-.03,2.2,0,3.3-.02.37,0,.48.1.48.47-.01,4.49-.01,8.98,0,13.47,0,.45-.2.42-.51.38-2.73-.36-5.47-.7-8.2-1.05-2.22-.29-4.44-.59-6.67-.88-.31-.04-.58-.14-.86-.27-3.79-1.7-7.58-3.39-11.38-5.08-1.59-.71-2.75-1.77-2.94-3.61-.04-.4-.28-.35-.53-.35-1.38,0-2.76-.03-4.14,0-3.38.08-5.4-2.76-5.06-5.17.07-.51-.24-.44-.55-.45-2.37-.13-4.21-1.85-4.53-4.21-.21-1.54.44-2.71,1.85-3.33.1-.04.23-.04.28-.17h3.93ZM49.18,10.68s.07-.08.11-.12c-.76-.82-1.53-1.63-2.28-2.46-.26-.29-.52-.4-.91-.4-3.77.01-7.53,0-11.3,0-.97,0-1.31.44-1.1,1.38.29,1.26,1.34,2.07,2.79,2.09,1.71.02,3.41,0,5.12.01.33,0,.56-.1.8-.33,1.17-1.1,2.52-1.44,4.07-.96.89.27,1.78.52,2.68.77Z"/>
      <path class="cls-1" d="M36.45,53.83c-9.64.24-17.46-7.05-18.34-16.17-.98-10.21,6.68-18.69,16.11-19.56,10.24-.95,18.67,6.76,19.54,16.15.94,10.18-6.89,19.24-17.32,19.57ZM47.21,42.54c.82,0,1.64-.02,2.45,0,.44.02.67-.12.83-.54,1.43-3.58,1.59-7.21.46-10.9-.11-.37-.24-.53-.67-.35-.62.26-1.27.48-1.91.67-.43.13-.71.38-.93.76-1.27,2.15-2.56,4.29-3.82,6.45-.23.39-.48.53-.94.52-1.52-.03-3.04-.03-4.56,0-.45,0-.59-.13-.66-.57-.21-1.55-.47-3.09-.73-4.63-.05-.31-.11-.62-.33-.9q-2.57-3.24-6.34-4.87c-.09-.04-.17-.09-.25-.12-.42-.12-.64-.39-.81-.79-.52-1.25-1.11-2.47-1.6-3.73-.25-.64-.45-.64-.95-.25-3.51,2.76-5.61,6.32-6.19,10.76-.05.38-.02.51.41.39,1.24-.33,2.49-.6,3.74-.92.33-.08.61-.07.92.12,1.4.85,2.81,1.67,4.22,2.49.25.15.45.33.61.56.84,1.18,1.67,2.36,2.52,3.54.19.26.25.5.19.84-.27,1.49-.49,2.99-.76,4.48-.06.33,0,.57.2.83,1.29,1.63,2.57,3.27,3.84,4.92.21.28.45.35.77.34,1.17-.06,2.31-.3,3.44-.59.45-.12.6-.3.45-.78-.29-.89-.51-1.79-.77-2.69-.11-.36-.08-.64.22-.93.67-.65,1.29-1.35,1.94-2.02.68-.7,1.26-1.66,2.1-2.02.81-.35,1.88-.09,2.84-.1.02,0,.05,0,.07,0ZM35.9,20.15c-2.27,0-4.41.48-6.46,1.41-.25.11-.55.17-.36.58.61,1.34.96,2.88,1.87,3.96.67.81,2.04,1.03,3.1,1.51.17.08.34.15.51.22.22.09.39.23.55.42,1.08,1.29,2.17,2.57,3.26,3.85.19.22.31.45.35.74.18,1.22.39,2.44.56,3.66.05.4.18.58.61.56.56-.03,1.12-.04,1.68,0,.39.03.59-.14.77-.45.81-1.39,1.77-2.71,2.44-4.17.91-1.97,2.32-3.17,4.44-3.55.59-.1.67-.36.34-.89-3.15-5.09-7.73-7.67-13.68-7.85ZM33.5,51.4c-.85-1.09-1.6-2.26-2.56-3.23-1.07-1.08-1.2-2.22-.84-3.6.27-1.06.61-2.18.5-3.23-.12-1.09-1.18-1.85-1.76-2.79-.06-.1-.13-.19-.2-.29-.13-.2-.31-.35-.51-.47-1.03-.6-2.06-1.2-3.08-1.82-.33-.2-.64-.23-1-.14-1.08.28-2.17.57-3.26.79-.52.1-.64.34-.58.81.18,1.42.44,2.82.99,4.14,2.28,5.54,6.4,8.8,12.31,9.84ZM49.05,44.67c-.66,0-1.15.06-1.62-.01-1.65-.26-2.84.33-3.9,1.64-1.21,1.5-1.31,1.42-.74,3.25,0,.02,0,.05.01.07.06.33.19.42.53.24,2.28-1.23,4.14-2.91,5.71-5.18Z"/>
      <path class="cls-1" d="M12.49,37.01c-1.57,0-1.55,0-1.55-1.58,0-.45.12-.62.59-.6.7.03,1.4.02,2.1,0,.4-.01.51.15.52.53.06,1.64.07,1.64-1.65,1.64Z"/>
      <path class="cls-1" d="M59.3,37.01c-1.66,0-1.65,0-1.59-1.63.01-.38.11-.55.52-.54.75.02,1.49.02,2.24,0,.33,0,.43.12.45.45.1,1.72.11,1.72-1.61,1.72Z"/>
      <path class="cls-1" d="M14.14,29.27c.08.06.17.11.23.17.6.59,1.19,1.19,1.79,1.78.2.2.17.34-.02.52-.34.32-.67.65-.99.99-.16.17-.29.19-.46.02-.61-.62-1.22-1.23-1.83-1.84-.15-.15-.12-.27.02-.41.35-.34.7-.69,1.04-1.04.06-.06.14-.12.23-.19Z"/>
      <path class="cls-1" d="M56.83,32.99c-.17-.22-.34-.44-.52-.65-.15-.17-.31-.35-.49-.49-.35-.26-.32-.47,0-.76.55-.5,1.07-1.04,1.58-1.58.23-.25.45-.27.61.02.28.5,1.31.69.93,1.37-.4.72-1.17,1.24-1.78,1.85-.06.06-.15.11-.32.23Z"/>
      <path class="cls-1" d="M16.34,40.38c-.07.09-.13.19-.2.27-.56.56-1.13,1.12-1.68,1.69-.24.25-.38.21-.63,0-1.24-1.13-1.25-1.13-.07-2.31.03-.03.06-.07.1-.1.37-.31.69-1.01,1.07-.89.5.16.86.75,1.28,1.15.05.05.08.11.14.19Z"/>
      <path class="cls-1" d="M59.11,41.1c-.06.27-.28.39-.43.55q-.98.99-1.95.02s-.1-.1-.15-.15q-1.27-1.27.12-2.39c.17-.14.28-.2.46-.02.59.6,1.19,1.19,1.78,1.79.06.06.11.14.17.21Z"/>
      <path class="cls-1" d="M38.75,24.12c0-1.05,0-1.06,1.16-1.05,1.14.01.95-.17.96,1.25,0,1.08.16.9-1.22.91-1.05,0-.87.13-.89-1.11Z"/>
      <path class="cls-1" d="M45.07,26.27q0,1.07-1.14,1.07c-.98,0-.99,0-.97-1.23.01-1.07-.19-.93,1.21-.93,1.07,0,.89-.12.91,1.09Z"/>
    </g>
  </g>
</svg>