<?xml version="1.0" encoding="UTF-8"?>
<svg id="Layer_2" data-name="Layer 2" xmlns="http://www.w3.org/2000/svg" viewBox="0 0 64.58 72">
  <defs>
    <style>
      .cls-1, .cls-2 {
        stroke-width: 0px;
      }

      .cls-2 {
        fill: #fff;
      }
    </style>
  </defs>
  <g id="Layer_6" data-name="Layer 6">
    <g>
      <path class="cls-1" d="M9.3,49.73c.48-.27.92-.51,1.36-.77,2.6-1.5,5.18-3.01,7.79-4.49,1.37-.78,2.81-1.49,4.41-1.51,1.14-.02,2.33.09,3.41.41,3.31.98,6.57,2.1,9.86,3.14.43.14.9.2,1.34.3,2.97.67,4.45,3.3,3.46,6.17-.02.07-.04.14-.12.4.56-.25,1.01-.41,1.43-.64,2.24-1.29,4.48-2.59,6.71-3.89,1.78-1.03,3.54-2.08,5.33-3.09,1.48-.84,3.03-1.47,4.75-1.69,2.38-.3,4.5.87,5.24,2.96.81,2.26,0,4.6-2.04,5.85-6.71,4.13-13.45,8.21-20.12,12.41-2.84,1.79-5.72,2.21-8.93,1.29-4.29-1.23-8.63-2.31-12.93-3.51-.82-.23-1.49-.24-2.16.28-.23.18-.49.3-.82.49.35.62.7,1.22,1.03,1.82.89,1.63.47,3.22-1.13,4.16-1.04.61-2.09,1.21-3.16,1.78-1.49.79-3.12.37-3.96-1.09-3.23-5.66-6.45-11.33-9.65-17.01-.84-1.5-.37-3.12,1.12-3.99,1.02-.6,2.05-1.18,3.09-1.75,1.62-.9,3.23-.45,4.17,1.13.16.26.32.53.5.84ZM16.11,61.79c.65-.37,1.24-.66,1.78-1.02.59-.4,1.17-.43,1.85-.25,4.78,1.3,9.57,2.52,14.34,3.86,2.37.66,4.49.37,6.57-.95,3.66-2.32,7.37-4.55,11.05-6.82,3.11-1.91,6.22-3.82,9.33-5.74,1.03-.63,1.41-1.67,1.07-2.88-.29-1.04-1.06-1.59-2.3-1.58-.43,0-.9,0-1.29.16-1.29.52-2.62,1.01-3.83,1.69-3.85,2.17-7.66,4.44-11.49,6.64-1.62.93-3.4,1.39-5.24,1-3.28-.7-6.53-1.53-9.78-2.33-.77-.19-1.12-.81-.94-1.46.18-.67.83-.97,1.63-.75,1.56.42,3.11.88,4.68,1.28.98.25,1.97.53,2.97.64,1.37.15,2.17-.48,2.37-1.68.19-1.13-.52-2.11-1.77-2.43-.49-.12-1-.19-1.48-.34-3.31-1.05-6.63-2.1-9.92-3.2-1.42-.47-2.8-.5-4.18.03-.76.3-1.51.65-2.22,1.05-2.82,1.6-5.62,3.23-8.42,4.85-.14.08-.26.19-.41.3,1.88,3.31,3.73,6.58,5.64,9.94ZM6.32,49.58c-.22.08-.31.1-.39.15-1.08.6-2.17,1.18-3.21,1.84-.18.11-.29.61-.2.83.23.58.59,1.1.9,1.65,2.82,4.98,5.65,9.96,8.47,14.93.45.8.56.82,1.36.38.82-.46,1.64-.93,2.46-1.4.85-.48.88-.58.42-1.4-1.33-2.35-2.67-4.7-4-7.06-1.74-3.07-3.47-6.14-5.22-9.2-.16-.27-.39-.5-.57-.73Z"/>
      <path class="cls-1" d="M26.93,30.25c-.31-.14-.59-.26-.88-.39-2.89-1.24-3.94-2.84-3.43-5.9.33-1.99,0-3.69-1.02-5.37-.63-1.03-.92-2.16-.67-3.4.21-1.03.61-1.98,1.44-2.61,1.91-1.45,2.92-3.31,3.31-5.69.36-2.22,2.26-3.6,4.51-3.68.85-.03,1.7-.05,2.53-.16.46-.06.94-.25,1.33-.51.75-.48,1.44-1.06,2.16-1.59,1.76-1.26,3.85-1.27,5.62-.03.69.49,1.32,1.07,2.05,1.49.56.32,1.23.54,1.87.64.88.14,1.79.09,2.68.19,1.95.21,3.68,1.65,4,3.67.37,2.35,1.43,4.13,3.26,5.65,1.72,1.42,2.15,3.67,1,5.59-1.28,2.14-1.58,4.29-1.11,6.7.35,1.81-.85,3.74-2.62,4.61-.56.28-1.15.51-1.78.78.09.23.18.44.27.65,1.15,2.47,2.3,4.95,3.46,7.41.32.67.51,1.32-.01,1.97-.52.65-1.22.59-1.93.46-.95-.17-1.9-.33-2.85-.52-.48-.1-.78-.01-1.03.48-.48.95-1.06,1.84-1.59,2.76-.32.56-.77.96-1.44.94-.7-.02-1.14-.44-1.43-1.06-1.09-2.37-2.2-4.72-3.3-7.09-.45-.97-1.64-1.55-2.7-1.36-.96.17-1.61.57-2.02,1.56-.94,2.27-2.05,4.47-3.08,6.71-.3.65-.69,1.19-1.46,1.24-.78.04-1.22-.44-1.57-1.08-.51-.93-1.04-1.85-1.62-2.75-.13-.2-.49-.37-.72-.34-1.05.14-2.1.35-3.14.53-.63.1-1.27.16-1.76-.39-.52-.58-.5-1.19-.17-1.88,1.2-2.53,2.37-5.07,3.55-7.61.09-.19.17-.39.28-.62ZM43.4,33.56c1.2,0,1.86-.31,2.38-1.13,2.43-3.86,2.24-3.39,5.97-5,1.04-.45,1.58-1.24,1.5-2.4-.02-.36-.04-.73-.11-1.08-.38-1.99-.29-3.89.88-5.63.25-.38.43-.81.62-1.22.46-1.02.3-2-.48-2.8-.35-.36-.71-.73-1.11-1.04-1.5-1.16-2.23-2.7-2.59-4.53-.56-2.86-.86-3.11-3.78-3.2-1.97-.06-3.71-.57-5.17-1.92-.27-.24-.57-.45-.87-.66-1.13-.81-2.06-.81-3.19.02-.66.48-1.28,1.05-1.99,1.46-.7.4-1.47.75-2.25.92-.87.18-1.78.15-2.68.18-1.49.06-2.27.67-2.63,2.1-.18.7-.37,1.4-.51,2.11-.23,1.16-.79,2.11-1.67,2.89-.6.53-1.18,1.08-1.74,1.64-.81.81-.99,1.82-.5,2.86.34.72.71,1.43,1.08,2.13.48.9.71,1.84.6,2.86-.1.96-.22,1.92-.3,2.88-.1,1.18.47,1.98,1.54,2.45.73.32,1.46.64,2.2.94,1.02.42,1.82,1.08,2.4,2.01.44.7.88,1.39,1.35,2.06.69.99,1.62,1.32,2.79,1,.51-.14,1.03-.28,1.52-.47,1.58-.61,3.15-.62,4.74-.02.74.28,1.52.45,1.99.58ZM28.94,31.53c-1.07,2.29-2.06,4.43-3.1,6.67,1.08-.18,2.01-.3,2.92-.5.8-.18,1.29.1,1.67.78.46.83.96,1.65,1.5,2.56.81-1.74,1.56-3.36,2.37-5.11-2.94-.08-4.01-2.29-5.36-4.39ZM52.28,38.2c-1.06-2.27-2.06-4.41-3.12-6.67-1.35,2.14-2.45,4.34-5.36,4.39.83,1.77,1.58,3.39,2.38,5.12.55-.94,1.04-1.79,1.53-2.64.35-.61.83-.88,1.57-.72.94.2,1.89.33,3,.52Z"/>
      <path class="cls-2" d="M16.11,61.79c-1.9-3.35-3.76-6.63-5.64-9.94.15-.11.27-.22.41-.3,2.8-1.62,5.6-3.25,8.42-4.85.71-.4,1.46-.75,2.22-1.05,1.38-.54,2.77-.5,4.18-.03,3.3,1.1,6.61,2.14,9.92,3.2.48.15.99.22,1.48.34,1.25.32,1.96,1.3,1.77,2.43-.2,1.19-.99,1.83-2.37,1.68-1-.11-1.99-.38-2.97-.64-1.57-.41-3.12-.86-4.68-1.28-.8-.22-1.45.09-1.63.75-.18.65.17,1.27.94,1.46,3.26.8,6.51,1.64,9.78,2.33,1.84.39,3.62-.07,5.24-1,3.84-2.2,7.64-4.47,11.49-6.64,1.21-.68,2.53-1.17,3.83-1.69.39-.16.85-.16,1.29-.16,1.24,0,2.01.54,2.3,1.58.33,1.21-.05,2.25-1.07,2.88-3.11,1.92-6.22,3.83-9.33,5.74-3.69,2.27-7.4,4.5-11.05,6.82-2.08,1.32-4.2,1.61-6.57.95-4.77-1.33-9.56-2.56-14.34-3.86-.68-.18-1.26-.15-1.85.25-.54.36-1.12.65-1.78,1.02Z"/>
      <path class="cls-2" d="M6.32,49.58c.18.23.42.46.57.73,1.75,3.06,3.48,6.13,5.22,9.2,1.33,2.35,2.67,4.7,4,7.06.47.82.43.92-.42,1.4-.82.47-1.64.94-2.46,1.4-.8.45-.91.42-1.36-.38-2.83-4.98-5.65-9.96-8.47-14.93-.31-.55-.67-1.07-.9-1.65-.09-.23.02-.72.2-.83,1.04-.66,2.13-1.23,3.21-1.84.08-.05.18-.07.39-.15ZM6.65,52.71c0-.61-.54-1.16-1.16-1.18-.64-.02-1.23.54-1.23,1.18,0,.65.56,1.18,1.23,1.16.64-.02,1.15-.54,1.15-1.17Z"/>
      <path class="cls-2" d="M43.4,33.56c-.47-.13-1.25-.3-1.99-.58-1.59-.6-3.16-.59-4.74.02-.49.19-1.01.33-1.52.47-1.17.32-2.11,0-2.79-1-.47-.67-.92-1.36-1.35-2.06-.58-.93-1.38-1.6-2.4-2.01-.74-.3-1.47-.62-2.2-.94-1.07-.47-1.63-1.27-1.54-2.45.08-.96.2-1.92.3-2.88.11-1.02-.12-1.96-.6-2.86-.38-.7-.74-1.41-1.08-2.13-.49-1.04-.32-2.04.5-2.86.56-.56,1.15-1.11,1.74-1.64.88-.78,1.44-1.73,1.67-2.89.14-.71.33-1.41.51-2.11.36-1.43,1.14-2.05,2.63-2.1.89-.03,1.81,0,2.68-.18.78-.17,1.55-.52,2.25-.92.71-.4,1.32-.97,1.99-1.46,1.14-.83,2.06-.83,3.19-.02.3.21.6.41.87.66,1.46,1.35,3.19,1.86,5.17,1.92,2.93.09,3.22.34,3.78,3.2.36,1.83,1.09,3.38,2.59,4.53.4.31.76.68,1.11,1.04.78.8.95,1.78.48,2.8-.19.42-.37.85-.62,1.22-1.18,1.75-1.26,3.65-.88,5.63.07.35.09.72.11,1.08.07,1.16-.47,1.95-1.5,2.4-3.73,1.61-3.54,1.14-5.97,5-.52.82-1.18,1.14-2.38,1.13ZM39.06,29.47c6.34,0,11.52-5.16,11.53-11.46.01-6.34-5.2-11.55-11.54-11.55-6.34,0-11.55,5.23-11.53,11.56.02,6.31,5.2,11.46,11.54,11.46Z"/>
      <path class="cls-2" d="M28.94,31.53c1.35,2.1,2.42,4.31,5.36,4.39-.81,1.75-1.57,3.37-2.37,5.11-.54-.91-1.03-1.73-1.5-2.56-.38-.68-.87-.96-1.67-.78-.91.21-1.85.32-2.92.5,1.04-2.24,2.04-4.38,3.1-6.67Z"/>
      <path class="cls-2" d="M52.28,38.2c-1.1-.19-2.06-.32-3-.52-.74-.16-1.21.11-1.57.72-.49.85-.99,1.7-1.53,2.64-.81-1.73-1.56-3.34-2.38-5.12,2.91-.05,4.01-2.25,5.36-4.39,1.06,2.26,2.06,4.4,3.12,6.67Z"/>
      <path class="cls-1" d="M6.65,52.71c0,.63-.51,1.15-1.15,1.17-.67.02-1.23-.51-1.23-1.16,0-.64.59-1.2,1.23-1.18.62.02,1.15.56,1.16,1.18Z"/>
      <path class="cls-1" d="M39.06,29.47c-6.34,0-11.52-5.15-11.54-11.46-.02-6.33,5.2-11.56,11.53-11.56,6.34,0,11.55,5.21,11.54,11.55-.01,6.31-5.2,11.46-11.53,11.46ZM29.89,17.92c-.05,4.99,4.05,9.16,9.08,9.22,5.02.06,9.21-4.06,9.26-9.12.05-4.97-4.02-9.12-9.02-9.18-5.14-.06-9.27,3.95-9.32,9.08Z"/>
      <path class="cls-2" d="M29.89,17.92c.05-5.13,4.18-9.15,9.32-9.08,5,.06,9.07,4.21,9.02,9.18-.05,5.06-4.24,9.19-9.26,9.12-5.03-.06-9.13-4.22-9.08-9.22ZM37.62,17.17c-.47-.48-.92-.95-1.39-1.4-1.12-1.06-2.71-1.09-3.79-.07-1.09,1.03-1.18,2.65-.13,3.77,1.16,1.23,2.36,2.43,3.59,3.58,1.06.98,2.6.98,3.62-.02,2.11-2.06,4.17-4.17,6.24-6.28.64-.66.91-1.48.7-2.4-.23-1.05-.87-1.78-1.92-2.06-1.01-.27-1.91-.03-2.67.71-1.39,1.37-2.79,2.73-4.26,4.16Z"/>
      <path class="cls-1" d="M37.62,17.17c1.46-1.43,2.86-2.79,4.26-4.16.76-.74,1.66-.98,2.67-.71,1.05.28,1.69,1.01,1.92,2.06.2.92-.06,1.74-.7,2.4-2.06,2.11-4.13,4.21-6.24,6.28-1.02,1-2.56,1.01-3.62.02-1.24-1.15-2.44-2.35-3.59-3.58-1.05-1.12-.96-2.75.13-3.77,1.08-1.02,2.67-1,3.79.07.47.45.92.92,1.39,1.4ZM34.33,17.26c-.12.1-.32.19-.31.27.02.19.08.42.21.56.99,1.02,2.02,2.01,3.01,3.03.37.38.64.28.97-.06,1.86-1.89,3.75-3.77,5.6-5.67.16-.17.14-.51.21-.77-.24.1-.54.14-.71.3-1.56,1.54-3.1,3.11-4.66,4.66-.65.65-1.24.65-1.89.02-.66-.64-1.3-1.29-1.95-1.94-.13-.13-.29-.25-.47-.4Z"/>
      <path class="cls-2" d="M34.33,17.26c.18.15.33.26.47.4.65.64,1.29,1.3,1.95,1.94.66.63,1.24.63,1.89-.02,1.56-1.55,3.09-3.12,4.66-4.66.17-.17.47-.21.71-.3-.07.26-.05.61-.21.77-1.85,1.9-3.73,3.78-5.6,5.67-.33.33-.6.43-.97.06-1-1.02-2.02-2.01-3.01-3.03-.13-.13-.19-.36-.21-.56,0-.07.19-.17.31-.27Z"/>
    </g>
  </g>
</svg>